<?xml version="1.0" encoding="utf-8" standalone="no"?>
<!DOCTYPE svg PUBLIC "-//W3C//DTD SVG 1.1//EN"
  "http://www.w3.org/Graphics/SVG/1.1/DTD/svg11.dtd">
<svg xmlns:xlink="http://www.w3.org/1999/xlink" width="318.763636pt" height="137.790663pt" viewBox="0 0 318.763636 137.790663" xmlns="http://www.w3.org/2000/svg" version="1.1">
 <metadata>
  <rdf:RDF xmlns:dc="http://purl.org/dc/elements/1.1/" xmlns:cc="http://creativecommons.org/ns#" xmlns:rdf="http://www.w3.org/1999/02/22-rdf-syntax-ns#">
   <cc:Work>
    <dc:type rdf:resource="http://purl.org/dc/dcmitype/StillImage"/>
    <dc:date>2025-01-09T10:49:05.366611</dc:date>
    <dc:format>image/svg+xml</dc:format>
    <dc:creator>
     <cc:Agent>
      <dc:title>Matplotlib v3.8.2, https://matplotlib.org/</dc:title>
     </cc:Agent>
    </dc:creator>
   </cc:Work>
  </rdf:RDF>
 </metadata>
 <defs>
  <style type="text/css">*{stroke-linejoin: round; stroke-linecap: butt}</style>
 </defs>
 <g id="figure_1">
  <g id="patch_1">
   <path d="M 0 137.790663 
L 318.763636 137.790663 
L 318.763636 0 
L 0 0 
z
" style="fill: #ffffff"/>
  </g>
  <g id="axes_1">
   <g id="patch_2">
    <path d="M 7.2 130.590663 
L 311.563636 130.590663 
L 311.563636 7.2 
L 7.2 7.2 
z
" style="fill: #ffffff"/>
   </g>
   <g id="patch_3">
    <path d="M 93.313989 47.331499 
C 88.465107 47.850459 84.057807 50.624637 81.062744 55.043051 
C 78.067682 59.461465 76.729391 65.163371 77.342614 70.892991 
C 77.955838 76.622611 80.470509 81.912147 84.332801 85.596639 
C 88.195093 89.281131 93.089666 91.059758 97.938548 90.540797 
C 102.787429 90.021836 107.19473 87.247658 110.189792 82.829244 
C 113.184855 78.410831 114.523146 72.708924 113.909922 66.979304 
C 113.296698 61.249684 110.782027 55.960149 106.919735 52.275656 
C 103.057444 48.591164 98.16287 46.812538 93.313989 47.331499 
L 93.313989 47.331499 
z
" clip-path="url(#p45ccfdd617)" style="fill: none; stroke: #0000ff; stroke-linejoin: miter"/>
   </g>
   <g id="patch_4">
    <path d="M 81.068746 70.072921 
C 81.068571 70.280149 82.600818 70.480214 85.328026 70.629051 
C 88.055234 70.777889 91.75474 70.863349 95.61177 70.866608 
C 99.4688 70.869868 103.168444 70.790662 105.8959 70.646434 
C 108.623356 70.502206 110.155938 70.304731 110.156113 70.097503 
C 110.156289 69.890274 108.624042 69.69021 105.896834 69.541372 
C 103.169626 69.392534 99.47012 69.307075 95.61309 69.303815 
C 91.75606 69.300555 88.056416 69.379762 85.32896 69.52399 
C 82.601504 69.668218 81.068922 69.865692 81.068746 70.072921 
L 81.068746 70.072921 
z
" clip-path="url(#p45ccfdd617)" style="fill: none; stroke: #ff0000; stroke-linejoin: miter"/>
   </g>
   <g id="patch_5">
    <path d="M 83.182533 29.184161 
C 83.181537 29.435671 84.715764 29.682992 87.447319 29.871657 
C 90.178874 30.060321 93.884737 30.174923 97.748734 30.190225 
C 101.612732 30.205527 105.319387 30.120278 108.05235 29.953253 
C 110.785313 29.786229 112.321451 29.551066 112.322447 29.299557 
C 112.323443 29.048047 110.789216 28.800725 108.057661 28.612061 
C 105.326106 28.423397 101.620243 28.308794 97.756246 28.293493 
C 93.892248 28.278191 90.185593 28.36344 87.45263 28.530464 
C 84.719667 28.697488 83.183529 28.932651 83.182533 29.184161 
L 83.182533 29.184161 
z
" clip-path="url(#p45ccfdd617)" style="fill: none; stroke: #008000; stroke-linejoin: miter"/>
   </g>
   <g id="patch_6">
    <path d="M 122.248747 113.080991 
C 122.251073 113.580404 123.788024 114.052281 126.521104 114.392695 
C 129.254184 114.733109 132.960249 114.914268 136.823082 114.896273 
C 140.685914 114.878278 144.39013 114.662599 147.11992 114.296736 
C 149.84971 113.930873 151.382198 113.444698 151.379872 112.945285 
C 151.377545 112.445872 149.840594 111.973995 147.107514 111.633581 
C 144.374434 111.293167 140.668369 111.112009 136.805537 111.130003 
C 132.942704 111.147998 129.238488 111.363678 126.508698 111.72954 
C 123.778908 112.095403 122.24642 112.581578 122.248747 113.080991 
L 122.248747 113.080991 
z
" clip-path="url(#p45ccfdd617)" style="fill: none; stroke: #008000; stroke-linejoin: miter"/>
   </g>
   <g id="patch_7">
    <path d="M 157.290378 32.017615 
C 157.283598 32.651364 158.812359 33.275667 161.539969 33.753027 
C 164.267578 34.230388 167.97134 34.521833 171.835543 34.563174 
C 175.699746 34.604515 179.408896 34.392377 182.146094 33.973481 
C 184.883292 33.554585 186.42506 32.963132 186.43184 32.329383 
C 186.43862 31.695634 184.909859 31.071331 182.18225 30.593971 
C 179.45464 30.11661 175.750878 29.825165 171.886675 29.783824 
C 168.022472 29.742483 164.313323 29.954621 161.576124 30.373517 
C 158.838926 30.792413 157.297158 31.383866 157.290378 32.017615 
L 157.290378 32.017615 
z
" clip-path="url(#p45ccfdd617)" style="fill: none; stroke: #008000; stroke-linejoin: miter"/>
   </g>
   <g id="patch_8">
    <path d="M 163.792278 93.518634 
C 163.794262 94.228395 165.329413 94.904895 168.059632 95.399145 
C 170.78985 95.893394 174.492227 96.165038 178.351355 96.154252 
C 182.210484 96.143465 185.911284 95.851127 188.638697 95.341623 
C 191.36611 94.832119 192.897455 94.147047 192.895471 93.437286 
C 192.893487 92.727526 191.358336 92.051025 188.628118 91.556776 
C 185.897899 91.062526 182.195522 90.790882 178.336394 90.801668 
C 174.477266 90.812455 170.776466 91.104793 168.049052 91.614297 
C 165.321639 92.123801 163.790294 92.808873 163.792278 93.518634 
L 163.792278 93.518634 
z
" clip-path="url(#p45ccfdd617)" style="fill: none; stroke: #008000; stroke-linejoin: miter"/>
   </g>
   <g id="patch_9">
    <path d="M 120.18566 113.364127 
C 120.18866 113.800516 121.728779 114.208522 124.466824 114.498287 
C 127.204869 114.788051 130.91729 114.935916 134.786469 114.909316 
C 138.655649 114.882715 142.365686 114.683822 145.099488 114.356439 
C 147.83329 114.029055 149.367654 113.599912 149.364653 113.163523 
C 149.361653 112.727134 147.821534 112.319128 145.08349 112.029364 
C 142.345445 111.739599 138.633024 111.591734 134.763844 111.618335 
C 130.894664 111.644935 127.184627 111.843829 124.450825 112.171212 
C 121.717023 112.498595 120.18266 112.927738 120.18566 113.364127 
L 120.18566 113.364127 
z
" clip-path="url(#p45ccfdd617)" style="fill: none; stroke: #008000; stroke-linejoin: miter"/>
   </g>
   <g id="patch_10">
    <path d="M 162.410503 94.768656 
C 162.415579 95.476051 163.95483 96.143556 166.689254 96.624164 
C 169.423677 97.104771 173.13002 97.359239 176.992003 97.331526 
C 180.853986 97.303813 184.556295 96.99618 187.28354 96.47638 
C 190.010785 95.95658 191.540298 95.267053 191.535222 94.559659 
C 191.530146 93.852264 189.990895 93.184758 187.256471 92.704151 
C 184.522047 92.223544 180.815704 91.969075 176.953721 91.996789 
C 173.091738 92.024502 169.389429 92.332135 166.662184 92.851935 
C 163.934939 93.371734 162.405426 94.061262 162.410503 94.768656 
L 162.410503 94.768656 
z
" clip-path="url(#p45ccfdd617)" style="fill: none; stroke: #008000; stroke-linejoin: miter"/>
   </g>
   <g id="patch_11">
    <path d="M 210.321637 43.632469 
C 210.308168 44.659562 211.829522 45.664846 214.550638 46.426919 
C 217.271753 47.188992 220.970464 47.645634 224.832171 47.696275 
C 228.693879 47.746915 232.403292 47.38742 235.143455 46.696964 
C 237.883618 46.006507 239.43081 45.041463 239.444279 44.014369 
C 239.457748 42.987276 237.936394 41.981992 235.215278 41.219919 
C 232.494163 40.457846 228.795452 40.001204 224.933745 39.950563 
C 221.072037 39.899923 217.362624 40.259418 214.622461 40.949874 
C 211.882298 41.640331 210.335106 42.605375 210.321637 43.632469 
L 210.321637 43.632469 
z
" clip-path="url(#p45ccfdd617)" style="fill: none; stroke: #008000; stroke-linejoin: miter"/>
   </g>
   <g id="matplotlib.axis_1">
    <g id="xtick_1">
     <g id="line2d_1">
      <defs>
       <path id="mb88759c1ef" d="M 0 0 
L 0 -3 
" style="stroke: #000000; stroke-width: 0.8"/>
      </defs>
      <g>
       <use xlink:href="#mb88759c1ef" x="15.426044" y="130.590663" style="stroke: #000000; stroke-width: 0.8"/>
      </g>
     </g>
     <g id="line2d_2">
      <defs>
       <path id="m435b7c41b5" d="M 0 0 
L 0 3 
" style="stroke: #000000; stroke-width: 0.8"/>
      </defs>
      <g>
       <use xlink:href="#m435b7c41b5" x="15.426044" y="7.2" style="stroke: #000000; stroke-width: 0.8"/>
      </g>
     </g>
    </g>
    <g id="xtick_2">
     <g id="line2d_3">
      <g>
       <use xlink:href="#mb88759c1ef" x="56.556265" y="130.590663" style="stroke: #000000; stroke-width: 0.8"/>
      </g>
     </g>
     <g id="line2d_4">
      <g>
       <use xlink:href="#m435b7c41b5" x="56.556265" y="7.2" style="stroke: #000000; stroke-width: 0.8"/>
      </g>
     </g>
    </g>
    <g id="xtick_3">
     <g id="line2d_5">
      <g>
       <use xlink:href="#mb88759c1ef" x="97.686486" y="130.590663" style="stroke: #000000; stroke-width: 0.8"/>
      </g>
     </g>
     <g id="line2d_6">
      <g>
       <use xlink:href="#m435b7c41b5" x="97.686486" y="7.2" style="stroke: #000000; stroke-width: 0.8"/>
      </g>
     </g>
    </g>
    <g id="xtick_4">
     <g id="line2d_7">
      <g>
       <use xlink:href="#mb88759c1ef" x="138.816708" y="130.590663" style="stroke: #000000; stroke-width: 0.8"/>
      </g>
     </g>
     <g id="line2d_8">
      <g>
       <use xlink:href="#m435b7c41b5" x="138.816708" y="7.2" style="stroke: #000000; stroke-width: 0.8"/>
      </g>
     </g>
    </g>
    <g id="xtick_5">
     <g id="line2d_9">
      <g>
       <use xlink:href="#mb88759c1ef" x="179.946929" y="130.590663" style="stroke: #000000; stroke-width: 0.8"/>
      </g>
     </g>
     <g id="line2d_10">
      <g>
       <use xlink:href="#m435b7c41b5" x="179.946929" y="7.2" style="stroke: #000000; stroke-width: 0.8"/>
      </g>
     </g>
    </g>
    <g id="xtick_6">
     <g id="line2d_11">
      <g>
       <use xlink:href="#mb88759c1ef" x="221.07715" y="130.590663" style="stroke: #000000; stroke-width: 0.8"/>
      </g>
     </g>
     <g id="line2d_12">
      <g>
       <use xlink:href="#m435b7c41b5" x="221.07715" y="7.2" style="stroke: #000000; stroke-width: 0.8"/>
      </g>
     </g>
    </g>
    <g id="xtick_7">
     <g id="line2d_13">
      <g>
       <use xlink:href="#mb88759c1ef" x="262.207371" y="130.590663" style="stroke: #000000; stroke-width: 0.8"/>
      </g>
     </g>
     <g id="line2d_14">
      <g>
       <use xlink:href="#m435b7c41b5" x="262.207371" y="7.2" style="stroke: #000000; stroke-width: 0.8"/>
      </g>
     </g>
    </g>
    <g id="xtick_8">
     <g id="line2d_15">
      <g>
       <use xlink:href="#mb88759c1ef" x="303.337592" y="130.590663" style="stroke: #000000; stroke-width: 0.8"/>
      </g>
     </g>
     <g id="line2d_16">
      <g>
       <use xlink:href="#m435b7c41b5" x="303.337592" y="7.2" style="stroke: #000000; stroke-width: 0.8"/>
      </g>
     </g>
    </g>
   </g>
   <g id="matplotlib.axis_2">
    <g id="ytick_1">
     <g id="line2d_17">
      <defs>
       <path id="m17dcf41277" d="M 0 0 
L 3 0 
" style="stroke: #000000; stroke-width: 0.8"/>
      </defs>
      <g>
       <use xlink:href="#m17dcf41277" x="7.2" y="130.590663" style="stroke: #000000; stroke-width: 0.8"/>
      </g>
     </g>
     <g id="line2d_18">
      <defs>
       <path id="m40705aa6a8" d="M 0 0 
L -3 0 
" style="stroke: #000000; stroke-width: 0.8"/>
      </defs>
      <g>
       <use xlink:href="#m40705aa6a8" x="311.563636" y="130.590663" style="stroke: #000000; stroke-width: 0.8"/>
      </g>
     </g>
    </g>
    <g id="ytick_2">
     <g id="line2d_19">
      <g>
       <use xlink:href="#m17dcf41277" x="7.2" y="110.025553" style="stroke: #000000; stroke-width: 0.8"/>
      </g>
     </g>
     <g id="line2d_20">
      <g>
       <use xlink:href="#m40705aa6a8" x="311.563636" y="110.025553" style="stroke: #000000; stroke-width: 0.8"/>
      </g>
     </g>
    </g>
    <g id="ytick_3">
     <g id="line2d_21">
      <g>
       <use xlink:href="#m17dcf41277" x="7.2" y="89.460442" style="stroke: #000000; stroke-width: 0.8"/>
      </g>
     </g>
     <g id="line2d_22">
      <g>
       <use xlink:href="#m40705aa6a8" x="311.563636" y="89.460442" style="stroke: #000000; stroke-width: 0.8"/>
      </g>
     </g>
    </g>
    <g id="ytick_4">
     <g id="line2d_23">
      <g>
       <use xlink:href="#m17dcf41277" x="7.2" y="68.895332" style="stroke: #000000; stroke-width: 0.8"/>
      </g>
     </g>
     <g id="line2d_24">
      <g>
       <use xlink:href="#m40705aa6a8" x="311.563636" y="68.895332" style="stroke: #000000; stroke-width: 0.8"/>
      </g>
     </g>
    </g>
    <g id="ytick_5">
     <g id="line2d_25">
      <g>
       <use xlink:href="#m17dcf41277" x="7.2" y="48.330221" style="stroke: #000000; stroke-width: 0.8"/>
      </g>
     </g>
     <g id="line2d_26">
      <g>
       <use xlink:href="#m40705aa6a8" x="311.563636" y="48.330221" style="stroke: #000000; stroke-width: 0.8"/>
      </g>
     </g>
    </g>
    <g id="ytick_6">
     <g id="line2d_27">
      <g>
       <use xlink:href="#m17dcf41277" x="7.2" y="27.765111" style="stroke: #000000; stroke-width: 0.8"/>
      </g>
     </g>
     <g id="line2d_28">
      <g>
       <use xlink:href="#m40705aa6a8" x="311.563636" y="27.765111" style="stroke: #000000; stroke-width: 0.8"/>
      </g>
     </g>
    </g>
    <g id="ytick_7">
     <g id="line2d_29">
      <g>
       <use xlink:href="#m17dcf41277" x="7.2" y="7.2" style="stroke: #000000; stroke-width: 0.8"/>
      </g>
     </g>
     <g id="line2d_30">
      <g>
       <use xlink:href="#m40705aa6a8" x="311.563636" y="7.2" style="stroke: #000000; stroke-width: 0.8"/>
      </g>
     </g>
    </g>
   </g>
   <g id="line2d_31">
    <defs>
     <path id="md7ea5d4818" d="M 0 -5 
L -1.12257 -1.545085 
L -4.755283 -1.545085 
L -1.816356 0.59017 
L -2.938926 4.045085 
L -0 1.90983 
L 2.938926 4.045085 
L 1.816356 0.59017 
L 4.755283 -1.545085 
L 1.12257 -1.545085 
z
" style="stroke: #000000; stroke-linejoin: bevel"/>
    </defs>
    <g clip-path="url(#p45ccfdd617)">
     <use xlink:href="#md7ea5d4818" x="97.686486" y="27.765111" style="stroke: #000000; stroke-linejoin: bevel"/>
     <use xlink:href="#md7ea5d4818" x="138.816708" y="110.025553" style="stroke: #000000; stroke-linejoin: bevel"/>
     <use xlink:href="#md7ea5d4818" x="171.720885" y="27.765111" style="stroke: #000000; stroke-linejoin: bevel"/>
     <use xlink:href="#md7ea5d4818" x="179.946929" y="89.460442" style="stroke: #000000; stroke-linejoin: bevel"/>
     <use xlink:href="#md7ea5d4818" x="225.190172" y="35.991155" style="stroke: #000000; stroke-linejoin: bevel"/>
    </g>
   </g>
   <g id="line2d_32">
    <path d="M 97.686486 68.895332 
L 97.686486 27.765111 
" clip-path="url(#p45ccfdd617)" style="fill: none; stroke-dasharray: 5.55,2.4; stroke-dashoffset: 0; stroke: #000000; stroke-width: 1.5"/>
   </g>
   <g id="line2d_33">
    <path d="M 97.686486 68.895332 
L 138.816708 110.025553 
" clip-path="url(#p45ccfdd617)" style="fill: none; stroke-dasharray: 5.55,2.4; stroke-dashoffset: 0; stroke: #000000; stroke-width: 1.5"/>
   </g>
   <g id="line2d_34">
    <path d="M 97.686486 68.895332 
L 171.720885 27.765111 
" clip-path="url(#p45ccfdd617)" style="fill: none; stroke-dasharray: 5.55,2.4; stroke-dashoffset: 0; stroke: #000000; stroke-width: 1.5"/>
   </g>
   <g id="line2d_35">
    <path d="M 97.686486 68.895332 
L 179.946929 89.460442 
" clip-path="url(#p45ccfdd617)" style="fill: none; stroke-dasharray: 5.55,2.4; stroke-dashoffset: 0; stroke: #000000; stroke-width: 1.5"/>
   </g>
   <g id="line2d_36">
    <path d="M 97.686486 68.895332 
L 225.190172 35.991155 
" clip-path="url(#p45ccfdd617)" style="fill: none; stroke-dasharray: 5.55,2.4; stroke-dashoffset: 0; stroke: #000000; stroke-width: 1.5"/>
   </g>
   <g id="line2d_37">
    <path d="M 15.426044 68.895332 
L 56.556265 68.895332 
L 97.686486 68.895332 
" clip-path="url(#p45ccfdd617)" style="fill: none; stroke: #0000ff; stroke-width: 1.5; stroke-linecap: square"/>
   </g>
   <g id="line2d_38">
    <path d="M 15.426044 68.895332 
L 55.56276 68.895332 
L 95.626268 68.936148 
" clip-path="url(#p45ccfdd617)" style="fill: none; stroke: #000000; stroke-width: 1.5; stroke-linecap: square"/>
   </g>
   <g id="line2d_39">
    <path d="M 55.56276 68.895332 
L 55.56276 68.895332 
L 95.61243 70.085212 
" clip-path="url(#p45ccfdd617)" style="fill: none; stroke: #ff0000; stroke-width: 1.5; stroke-linecap: square"/>
    <defs>
     <path id="m93c800a367" d="M 0 2 
C 0.530406 2 1.03916 1.789267 1.414214 1.414214 
C 1.789267 1.03916 2 0.530406 2 0 
C 2 -0.530406 1.789267 -1.03916 1.414214 -1.414214 
C 1.03916 -1.789267 0.530406 -2 0 -2 
C -0.530406 -2 -1.03916 -1.789267 -1.414214 -1.414214 
C -1.789267 -1.03916 -2 -0.530406 -2 0 
C -2 0.530406 -1.789267 1.03916 -1.414214 1.414214 
C -1.03916 1.789267 -0.530406 2 0 2 
z
" style="stroke: #ff0000"/>
    </defs>
    <g clip-path="url(#p45ccfdd617)">
     <use xlink:href="#m93c800a367" x="55.56276" y="68.895332" style="fill: #ff0000; stroke: #ff0000"/>
     <use xlink:href="#m93c800a367" x="55.56276" y="68.895332" style="fill: #ff0000; stroke: #ff0000"/>
     <use xlink:href="#m93c800a367" x="95.61243" y="70.085212" style="fill: #ff0000; stroke: #ff0000"/>
    </g>
   </g>
   <g id="line2d_40">
    <path d="M 113.909922 66.979304 
L 77.342614 70.892991 
" clip-path="url(#p45ccfdd617)" style="fill: none; stroke: #0000ff; stroke-linecap: square"/>
   </g>
   <g id="line2d_41">
    <path d="M 97.938548 90.540797 
L 93.313989 47.331499 
" clip-path="url(#p45ccfdd617)" style="fill: none; stroke: #0000ff; stroke-linecap: square"/>
   </g>
   <g id="line2d_42">
    <path d="M 95.61309 69.303815 
L 95.61177 70.866608 
" clip-path="url(#p45ccfdd617)" style="fill: none; stroke: #ff0000; stroke-linecap: square"/>
   </g>
   <g id="line2d_43">
    <path d="M 110.156113 70.097503 
L 81.068746 70.072921 
" clip-path="url(#p45ccfdd617)" style="fill: none; stroke: #ff0000; stroke-linecap: square"/>
   </g>
   <g id="line2d_44">
    <path d="M 97.756246 28.293493 
L 97.748734 30.190225 
" clip-path="url(#p45ccfdd617)" style="fill: none; stroke: #008000; stroke-linecap: square"/>
   </g>
   <g id="line2d_45">
    <path d="M 112.322447 29.299557 
L 83.182533 29.184161 
" clip-path="url(#p45ccfdd617)" style="fill: none; stroke: #008000; stroke-linecap: square"/>
   </g>
   <g id="line2d_46">
    <path d="M 136.805537 111.130003 
L 136.823082 114.896273 
" clip-path="url(#p45ccfdd617)" style="fill: none; stroke: #008000; stroke-linecap: square"/>
   </g>
   <g id="line2d_47">
    <path d="M 151.379872 112.945285 
L 122.248747 113.080991 
" clip-path="url(#p45ccfdd617)" style="fill: none; stroke: #008000; stroke-linecap: square"/>
   </g>
   <g id="line2d_48">
    <path d="M 171.886675 29.783824 
L 171.835543 34.563174 
" clip-path="url(#p45ccfdd617)" style="fill: none; stroke: #008000; stroke-linecap: square"/>
   </g>
   <g id="line2d_49">
    <path d="M 186.43184 32.329383 
L 157.290378 32.017615 
" clip-path="url(#p45ccfdd617)" style="fill: none; stroke: #008000; stroke-linecap: square"/>
   </g>
   <g id="line2d_50">
    <path d="M 178.336394 90.801668 
L 178.351355 96.154252 
" clip-path="url(#p45ccfdd617)" style="fill: none; stroke: #008000; stroke-linecap: square"/>
   </g>
   <g id="line2d_51">
    <path d="M 192.895471 93.437286 
L 163.792278 93.518634 
" clip-path="url(#p45ccfdd617)" style="fill: none; stroke: #008000; stroke-linecap: square"/>
   </g>
   <g id="line2d_52">
    <path d="M 134.763844 111.618335 
L 134.786469 114.909316 
" clip-path="url(#p45ccfdd617)" style="fill: none; stroke: #008000; stroke-linecap: square"/>
   </g>
   <g id="line2d_53">
    <path d="M 149.364653 113.163523 
L 120.18566 113.364127 
" clip-path="url(#p45ccfdd617)" style="fill: none; stroke: #008000; stroke-linecap: square"/>
   </g>
   <g id="line2d_54">
    <path d="M 176.953721 91.996789 
L 176.992003 97.331526 
" clip-path="url(#p45ccfdd617)" style="fill: none; stroke: #008000; stroke-linecap: square"/>
   </g>
   <g id="line2d_55">
    <path d="M 191.535222 94.559659 
L 162.410503 94.768656 
" clip-path="url(#p45ccfdd617)" style="fill: none; stroke: #008000; stroke-linecap: square"/>
   </g>
   <g id="line2d_56">
    <path d="M 224.933745 39.950563 
L 224.832171 47.696275 
" clip-path="url(#p45ccfdd617)" style="fill: none; stroke: #008000; stroke-linecap: square"/>
   </g>
   <g id="line2d_57">
    <path d="M 239.444279 44.014369 
L 210.321637 43.632469 
" clip-path="url(#p45ccfdd617)" style="fill: none; stroke: #008000; stroke-linecap: square"/>
   </g>
   <g id="patch_12">
    <path d="M 7.2 130.590663 
L 7.2 7.2 
" style="fill: none; stroke: #000000; stroke-width: 0.8; stroke-linejoin: miter; stroke-linecap: square"/>
   </g>
   <g id="patch_13">
    <path d="M 311.563636 130.590663 
L 311.563636 7.2 
" style="fill: none; stroke: #000000; stroke-width: 0.8; stroke-linejoin: miter; stroke-linecap: square"/>
   </g>
   <g id="patch_14">
    <path d="M 7.2 130.590663 
L 311.563636 130.590663 
" style="fill: none; stroke: #000000; stroke-width: 0.8; stroke-linejoin: miter; stroke-linecap: square"/>
   </g>
   <g id="patch_15">
    <path d="M 7.2 7.2 
L 311.563636 7.2 
" style="fill: none; stroke: #000000; stroke-width: 0.8; stroke-linejoin: miter; stroke-linecap: square"/>
   </g>
  </g>
 </g>
 <defs>
  <clipPath id="p45ccfdd617">
   <rect x="7.2" y="7.2" width="304.363636" height="123.390663"/>
  </clipPath>
 </defs>
</svg>
