<?xml version="1.0" encoding="utf-8" standalone="no"?>
<!DOCTYPE svg PUBLIC "-//W3C//DTD SVG 1.1//EN"
  "http://www.w3.org/Graphics/SVG/1.1/DTD/svg11.dtd">
<svg xmlns:xlink="http://www.w3.org/1999/xlink" width="318.763636pt" height="137.790663pt" viewBox="0 0 318.763636 137.790663" xmlns="http://www.w3.org/2000/svg" version="1.1">
 <metadata>
  <rdf:RDF xmlns:dc="http://purl.org/dc/elements/1.1/" xmlns:cc="http://creativecommons.org/ns#" xmlns:rdf="http://www.w3.org/1999/02/22-rdf-syntax-ns#">
   <cc:Work>
    <dc:type rdf:resource="http://purl.org/dc/dcmitype/StillImage"/>
    <dc:date>2025-01-13T14:00:33.060718</dc:date>
    <dc:format>image/svg+xml</dc:format>
    <dc:creator>
     <cc:Agent>
      <dc:title>Matplotlib v3.8.3, https://matplotlib.org/</dc:title>
     </cc:Agent>
    </dc:creator>
   </cc:Work>
  </rdf:RDF>
 </metadata>
 <defs>
  <style type="text/css">*{stroke-linejoin: round; stroke-linecap: butt}</style>
 </defs>
 <g id="figure_1">
  <g id="patch_1">
   <path d="M 0 137.790663 
L 318.763636 137.790663 
L 318.763636 0 
L 0 0 
z
" style="fill: #ffffff"/>
  </g>
  <g id="axes_1">
   <g id="patch_2">
    <path d="M 7.2 130.590663 
L 311.563636 130.590663 
L 311.563636 7.2 
L 7.2 7.2 
z
" style="fill: #ffffff"/>
   </g>
   <g id="patch_3">
    <path d="M 160.15759 79.595566 
C 160.157487 79.898826 161.357459 80.190115 163.493226 80.40528 
C 165.628994 80.620444 168.526181 80.741917 171.546715 80.742946 
C 174.56725 80.743974 177.464519 80.624474 179.600432 80.410764 
C 181.736346 80.197054 182.936516 79.906582 182.936619 79.603322 
C 182.936722 79.300062 181.73675 79.008773 179.600983 78.793608 
C 177.465215 78.578444 174.568028 78.45697 171.547494 78.455942 
C 168.526959 78.454914 165.629691 78.574414 163.493777 78.788124 
C 161.357864 79.001834 160.157693 79.292306 160.15759 79.595566 
L 160.15759 79.595566 
z
" clip-path="url(#p12c8df68f6)" style="fill: none; stroke: #0000ff; stroke-linejoin: miter"/>
   </g>
   <g id="patch_4">
    <path d="M 162.869571 79.081727 
C 162.857934 79.264675 163.768911 79.498813 165.401869 79.732574 
C 167.034828 79.966334 169.256445 80.180633 171.577435 80.328272 
C 173.898425 80.475911 176.129289 80.544838 177.778706 80.519871 
C 179.428123 80.494904 180.361424 80.378082 180.373062 80.195133 
C 180.384699 80.012185 179.473722 79.778048 177.840763 79.544287 
C 176.207805 79.310526 173.986188 79.096228 171.665198 78.948589 
C 169.344208 78.800949 167.113343 78.732023 165.463927 78.75699 
C 163.81451 78.781957 162.881209 78.898779 162.869571 79.081727 
L 162.869571 79.081727 
z
" clip-path="url(#p12c8df68f6)" style="fill: none; stroke: #ff0000; stroke-linejoin: miter"/>
   </g>
   <g id="patch_5">
    <path d="M 88.47894 31.664667 
C 88.471721 31.800888 89.415287 31.981918 91.101829 32.167888 
C 92.788371 32.353858 95.08019 32.529584 97.47254 32.656365 
C 99.864889 32.783146 102.162445 32.85063 103.859196 32.843954 
C 105.555947 32.837279 106.513362 32.75699 106.52058 32.620769 
C 106.527799 32.484548 105.584233 32.303518 103.897691 32.117547 
C 102.211149 31.931577 99.91933 31.755851 97.52698 31.62907 
C 95.134631 31.50229 92.837076 31.434806 91.140325 31.441481 
C 89.443574 31.448156 88.486159 31.528446 88.47894 31.664667 
L 88.47894 31.664667 
z
" clip-path="url(#p12c8df68f6)" style="fill: none; stroke: #008000; stroke-linejoin: miter"/>
   </g>
   <g id="patch_6">
    <path d="M 128.131984 114.59421 
C 128.117647 114.974083 129.038268 115.373715 130.69109 115.705091 
C 132.343913 116.036466 134.593992 116.27253 136.945774 116.361293 
C 139.297556 116.450055 141.559028 116.384269 143.232127 116.178423 
C 144.905225 115.972576 145.85335 115.643476 145.867688 115.263603 
C 145.882025 114.883729 144.961405 114.484098 143.308582 114.152722 
C 141.655759 113.821347 139.40568 113.585282 137.053898 113.49652 
C 134.702116 113.407757 132.440645 113.473544 130.767546 113.67939 
C 129.094447 113.885236 128.146322 114.214337 128.131984 114.59421 
L 128.131984 114.59421 
z
" clip-path="url(#p12c8df68f6)" style="fill: none; stroke: #008000; stroke-linejoin: miter"/>
   </g>
   <g id="patch_7">
    <path d="M 162.580887 32.674871 
C 162.542342 33.196031 163.44517 33.765424 165.090533 34.257645 
C 166.735896 34.749867 168.989457 35.12473 171.354896 35.299676 
C 173.720335 35.474621 176.004524 35.435366 177.704397 35.190555 
C 179.40427 34.945744 180.38104 34.515365 180.419584 33.994204 
C 180.458129 33.473044 179.555301 32.903651 177.909938 32.41143 
C 176.264576 31.919208 174.011014 31.544345 171.645575 31.369399 
C 169.280137 31.194454 166.995947 31.233709 165.296074 31.47852 
C 163.596201 31.723331 162.619431 32.15371 162.580887 32.674871 
L 162.580887 32.674871 
z
" clip-path="url(#p12c8df68f6)" style="fill: none; stroke: #008000; stroke-linejoin: miter"/>
   </g>
   <g id="patch_8">
    <path d="M 170.565689 94.9299 
C 170.539635 95.514763 171.447652 96.117313 173.08976 96.604846 
C 174.731868 97.092379 176.973996 97.425089 179.322342 97.529702 
C 181.670687 97.634314 183.933518 97.502288 185.612473 97.1627 
C 187.291427 96.823112 188.249425 96.303688 188.275479 95.718825 
C 188.301533 95.133962 187.393516 94.531412 185.751408 94.043879 
C 184.1093 93.556346 181.867172 93.223635 179.518826 93.119023 
C 177.17048 93.01441 174.907649 93.146437 173.228695 93.486025 
C 171.549741 93.825613 170.591743 94.345037 170.565689 94.9299 
L 170.565689 94.9299 
z
" clip-path="url(#p12c8df68f6)" style="fill: none; stroke: #008000; stroke-linejoin: miter"/>
   </g>
   <g id="patch_9">
    <path d="M 122.082314 116.480099 
C 122.063664 116.704989 122.936996 116.994607 124.50997 117.285169 
C 126.082944 117.575731 128.227133 117.843514 130.470304 118.029541 
C 132.713475 118.215568 134.872484 118.304652 136.471833 118.277172 
C 138.071183 118.249691 138.980293 118.107892 138.998943 117.883002 
C 139.017593 117.658112 138.144261 117.368493 136.571287 117.077931 
C 134.998313 116.787369 132.854124 116.519586 130.610953 116.333559 
C 128.367781 116.147532 126.208773 116.058449 124.609424 116.085929 
C 123.010074 116.113409 122.100964 116.255209 122.082314 116.480099 
L 122.082314 116.480099 
z
" clip-path="url(#p12c8df68f6)" style="fill: none; stroke: #008000; stroke-linejoin: miter"/>
   </g>
   <g id="patch_10">
    <path d="M 161.995454 37.453494 
C 161.953169 37.790345 162.866186 38.233147 164.533424 38.684377 
C 166.200662 39.135607 168.485998 39.558425 170.886113 39.85971 
C 173.286228 40.160994 175.605164 40.316147 177.332202 40.290998 
C 179.059239 40.265848 180.053374 40.06245 180.095658 39.725598 
C 180.137943 39.388747 179.224926 38.945945 177.557688 38.494715 
C 175.89045 38.043485 173.605114 37.620667 171.204999 37.319382 
C 168.804883 37.018098 166.485948 36.862945 164.75891 36.888094 
C 163.031873 36.913244 162.037738 37.116642 161.995454 37.453494 
L 161.995454 37.453494 
z
" clip-path="url(#p12c8df68f6)" style="fill: none; stroke: #008000; stroke-linejoin: miter"/>
   </g>
   <g id="patch_11">
    <path d="M 165.153099 99.579607 
C 165.107928 99.954623 165.967647 100.423102 167.542912 100.881869 
C 169.118177 101.340635 171.280376 101.752231 173.553308 102.026009 
C 175.826241 102.299787 178.024333 102.413393 179.66348 102.341807 
C 181.302627 102.270221 182.249 102.019287 182.294171 101.644271 
C 182.339342 101.269256 181.479623 100.800776 179.904358 100.34201 
C 178.329093 99.883244 176.166894 99.471647 173.893961 99.19787 
C 171.621029 98.924092 169.422937 98.810486 167.78379 98.882072 
C 166.144643 98.953658 165.19827 99.204592 165.153099 99.579607 
L 165.153099 99.579607 
z
" clip-path="url(#p12c8df68f6)" style="fill: none; stroke: #008000; stroke-linejoin: miter"/>
   </g>
   <g id="patch_12">
    <path d="M 214.614219 50.302744 
C 214.516473 50.84549 215.364044 51.535608 216.970267 52.221109 
C 218.576489 52.906609 220.81022 53.531524 223.179507 53.958223 
C 225.548795 54.384922 227.860196 54.578567 229.604652 54.49651 
C 231.349109 54.414452 232.384192 54.063393 232.481939 53.520647 
C 232.579685 52.977902 231.732113 52.287783 230.125891 51.602282 
C 228.519669 50.916782 226.285937 50.291867 223.91665 49.865168 
C 221.547363 49.438469 219.235961 49.244824 217.491505 49.326881 
C 215.747049 49.408939 214.711965 49.759999 214.614219 50.302744 
L 214.614219 50.302744 
z
" clip-path="url(#p12c8df68f6)" style="fill: none; stroke: #008000; stroke-linejoin: miter"/>
   </g>
   <g id="patch_13">
    <path d="M 117.698873 115.942781 
C 117.688472 116.112653 118.605867 116.332369 120.249011 116.553539 
C 121.892156 116.77471 124.126895 116.979277 126.461052 117.122188 
C 128.79521 117.265099 131.038213 117.334685 132.696067 117.31562 
C 134.35392 117.296556 135.291266 117.190398 135.301667 117.020526 
C 135.312067 116.850655 134.394673 116.630939 132.751528 116.409768 
C 131.108384 116.188598 128.873645 115.98403 126.539487 115.84112 
C 124.205329 115.698209 121.962326 115.628623 120.304473 115.647687 
C 118.64662 115.666752 117.709273 115.77291 117.698873 115.942781 
L 117.698873 115.942781 
z
" clip-path="url(#p12c8df68f6)" style="fill: none; stroke: #008000; stroke-linejoin: miter"/>
   </g>
   <g id="patch_14">
    <path d="M 158.640243 37.268824 
C 158.623054 37.521813 159.532225 37.827367 161.16752 38.118192 
C 162.802816 38.409017 165.030723 38.661369 167.360569 38.81967 
C 169.690416 38.97797 171.931981 39.029295 173.591586 38.962341 
C 175.251191 38.895386 176.193337 38.715619 176.210526 38.462631 
C 176.227715 38.209642 175.318545 37.904088 173.683249 37.613262 
C 172.047953 37.322437 169.820047 37.070085 167.4902 36.911785 
C 165.160353 36.753484 162.918788 36.702159 161.259183 36.769114 
C 159.599578 36.836068 158.657433 37.015836 158.640243 37.268824 
L 158.640243 37.268824 
z
" clip-path="url(#p12c8df68f6)" style="fill: none; stroke: #008000; stroke-linejoin: miter"/>
   </g>
   <g id="patch_15">
    <path d="M 160.720672 99.945884 
C 160.707888 100.162547 161.628136 100.425389 163.278744 100.676524 
C 164.929352 100.927658 167.175554 101.146581 169.52265 101.285076 
C 171.869746 101.423571 174.126107 101.470332 175.794795 101.415059 
C 177.463482 101.359787 178.408256 101.206994 178.421041 100.990332 
C 178.433826 100.773669 177.513577 100.510827 175.86297 100.259692 
C 174.212362 100.008558 171.96616 99.789635 169.619064 99.65114 
C 167.271967 99.512645 165.015607 99.465884 163.346919 99.521157 
C 161.678231 99.576429 160.733457 99.729222 160.720672 99.945884 
L 160.720672 99.945884 
z
" clip-path="url(#p12c8df68f6)" style="fill: none; stroke: #008000; stroke-linejoin: miter"/>
   </g>
   <g id="patch_16">
    <path d="M 210.70607 51.11032 
C 210.682632 51.541429 211.57591 52.004725 213.189169 52.398173 
C 214.802428 52.79162 217.003954 53.083097 219.308885 53.208408 
C 221.613815 53.333719 223.833965 53.282633 225.48037 53.066401 
C 227.126775 52.850169 228.065015 52.486447 228.088453 52.055338 
C 228.111891 51.62423 227.218613 51.160934 225.605354 50.767486 
C 223.992094 50.374038 221.790569 50.082562 219.485638 49.957251 
C 217.180707 49.83194 214.960558 49.883026 213.314153 50.099258 
C 211.667748 50.315489 210.729508 50.679212 210.70607 51.11032 
L 210.70607 51.11032 
z
" clip-path="url(#p12c8df68f6)" style="fill: none; stroke: #008000; stroke-linejoin: miter"/>
   </g>
   <g id="matplotlib.axis_1">
    <g id="xtick_1">
     <g id="line2d_1">
      <defs>
       <path id="m3d69971ca5" d="M 0 0 
L 0 -3 
" style="stroke: #000000; stroke-width: 0.8"/>
      </defs>
      <g>
       <use xlink:href="#m3d69971ca5" x="15.426044" y="130.590663" style="stroke: #000000; stroke-width: 0.8"/>
      </g>
     </g>
     <g id="line2d_2">
      <defs>
       <path id="m57463b8b30" d="M 0 0 
L 0 3 
" style="stroke: #000000; stroke-width: 0.8"/>
      </defs>
      <g>
       <use xlink:href="#m57463b8b30" x="15.426044" y="7.2" style="stroke: #000000; stroke-width: 0.8"/>
      </g>
     </g>
    </g>
    <g id="xtick_2">
     <g id="line2d_3">
      <g>
       <use xlink:href="#m3d69971ca5" x="56.556265" y="130.590663" style="stroke: #000000; stroke-width: 0.8"/>
      </g>
     </g>
     <g id="line2d_4">
      <g>
       <use xlink:href="#m57463b8b30" x="56.556265" y="7.2" style="stroke: #000000; stroke-width: 0.8"/>
      </g>
     </g>
    </g>
    <g id="xtick_3">
     <g id="line2d_5">
      <g>
       <use xlink:href="#m3d69971ca5" x="97.686486" y="130.590663" style="stroke: #000000; stroke-width: 0.8"/>
      </g>
     </g>
     <g id="line2d_6">
      <g>
       <use xlink:href="#m57463b8b30" x="97.686486" y="7.2" style="stroke: #000000; stroke-width: 0.8"/>
      </g>
     </g>
    </g>
    <g id="xtick_4">
     <g id="line2d_7">
      <g>
       <use xlink:href="#m3d69971ca5" x="138.816708" y="130.590663" style="stroke: #000000; stroke-width: 0.8"/>
      </g>
     </g>
     <g id="line2d_8">
      <g>
       <use xlink:href="#m57463b8b30" x="138.816708" y="7.2" style="stroke: #000000; stroke-width: 0.8"/>
      </g>
     </g>
    </g>
    <g id="xtick_5">
     <g id="line2d_9">
      <g>
       <use xlink:href="#m3d69971ca5" x="179.946929" y="130.590663" style="stroke: #000000; stroke-width: 0.8"/>
      </g>
     </g>
     <g id="line2d_10">
      <g>
       <use xlink:href="#m57463b8b30" x="179.946929" y="7.2" style="stroke: #000000; stroke-width: 0.8"/>
      </g>
     </g>
    </g>
    <g id="xtick_6">
     <g id="line2d_11">
      <g>
       <use xlink:href="#m3d69971ca5" x="221.07715" y="130.590663" style="stroke: #000000; stroke-width: 0.8"/>
      </g>
     </g>
     <g id="line2d_12">
      <g>
       <use xlink:href="#m57463b8b30" x="221.07715" y="7.2" style="stroke: #000000; stroke-width: 0.8"/>
      </g>
     </g>
    </g>
    <g id="xtick_7">
     <g id="line2d_13">
      <g>
       <use xlink:href="#m3d69971ca5" x="262.207371" y="130.590663" style="stroke: #000000; stroke-width: 0.8"/>
      </g>
     </g>
     <g id="line2d_14">
      <g>
       <use xlink:href="#m57463b8b30" x="262.207371" y="7.2" style="stroke: #000000; stroke-width: 0.8"/>
      </g>
     </g>
    </g>
    <g id="xtick_8">
     <g id="line2d_15">
      <g>
       <use xlink:href="#m3d69971ca5" x="303.337592" y="130.590663" style="stroke: #000000; stroke-width: 0.8"/>
      </g>
     </g>
     <g id="line2d_16">
      <g>
       <use xlink:href="#m57463b8b30" x="303.337592" y="7.2" style="stroke: #000000; stroke-width: 0.8"/>
      </g>
     </g>
    </g>
   </g>
   <g id="matplotlib.axis_2">
    <g id="ytick_1">
     <g id="line2d_17">
      <defs>
       <path id="mb5b3ab01bd" d="M 0 0 
L 3 0 
" style="stroke: #000000; stroke-width: 0.8"/>
      </defs>
      <g>
       <use xlink:href="#mb5b3ab01bd" x="7.2" y="130.590663" style="stroke: #000000; stroke-width: 0.8"/>
      </g>
     </g>
     <g id="line2d_18">
      <defs>
       <path id="m051e393c47" d="M 0 0 
L -3 0 
" style="stroke: #000000; stroke-width: 0.8"/>
      </defs>
      <g>
       <use xlink:href="#m051e393c47" x="311.563636" y="130.590663" style="stroke: #000000; stroke-width: 0.8"/>
      </g>
     </g>
    </g>
    <g id="ytick_2">
     <g id="line2d_19">
      <g>
       <use xlink:href="#mb5b3ab01bd" x="7.2" y="110.025553" style="stroke: #000000; stroke-width: 0.8"/>
      </g>
     </g>
     <g id="line2d_20">
      <g>
       <use xlink:href="#m051e393c47" x="311.563636" y="110.025553" style="stroke: #000000; stroke-width: 0.8"/>
      </g>
     </g>
    </g>
    <g id="ytick_3">
     <g id="line2d_21">
      <g>
       <use xlink:href="#mb5b3ab01bd" x="7.2" y="89.460442" style="stroke: #000000; stroke-width: 0.8"/>
      </g>
     </g>
     <g id="line2d_22">
      <g>
       <use xlink:href="#m051e393c47" x="311.563636" y="89.460442" style="stroke: #000000; stroke-width: 0.8"/>
      </g>
     </g>
    </g>
    <g id="ytick_4">
     <g id="line2d_23">
      <g>
       <use xlink:href="#mb5b3ab01bd" x="7.2" y="68.895332" style="stroke: #000000; stroke-width: 0.8"/>
      </g>
     </g>
     <g id="line2d_24">
      <g>
       <use xlink:href="#m051e393c47" x="311.563636" y="68.895332" style="stroke: #000000; stroke-width: 0.8"/>
      </g>
     </g>
    </g>
    <g id="ytick_5">
     <g id="line2d_25">
      <g>
       <use xlink:href="#mb5b3ab01bd" x="7.2" y="48.330221" style="stroke: #000000; stroke-width: 0.8"/>
      </g>
     </g>
     <g id="line2d_26">
      <g>
       <use xlink:href="#m051e393c47" x="311.563636" y="48.330221" style="stroke: #000000; stroke-width: 0.8"/>
      </g>
     </g>
    </g>
    <g id="ytick_6">
     <g id="line2d_27">
      <g>
       <use xlink:href="#mb5b3ab01bd" x="7.2" y="27.765111" style="stroke: #000000; stroke-width: 0.8"/>
      </g>
     </g>
     <g id="line2d_28">
      <g>
       <use xlink:href="#m051e393c47" x="311.563636" y="27.765111" style="stroke: #000000; stroke-width: 0.8"/>
      </g>
     </g>
    </g>
    <g id="ytick_7">
     <g id="line2d_29">
      <g>
       <use xlink:href="#mb5b3ab01bd" x="7.2" y="7.2" style="stroke: #000000; stroke-width: 0.8"/>
      </g>
     </g>
     <g id="line2d_30">
      <g>
       <use xlink:href="#m051e393c47" x="311.563636" y="7.2" style="stroke: #000000; stroke-width: 0.8"/>
      </g>
     </g>
    </g>
   </g>
   <g id="line2d_31">
    <defs>
     <path id="m6bafb73e6a" d="M 0 -5 
L -1.12257 -1.545085 
L -4.755283 -1.545085 
L -1.816356 0.59017 
L -2.938926 4.045085 
L -0 1.90983 
L 2.938926 4.045085 
L 1.816356 0.59017 
L 4.755283 -1.545085 
L 1.12257 -1.545085 
z
" style="stroke: #000000; stroke-linejoin: bevel"/>
    </defs>
    <g clip-path="url(#p12c8df68f6)">
     <use xlink:href="#m6bafb73e6a" x="97.686486" y="27.765111" style="stroke: #000000; stroke-linejoin: bevel"/>
     <use xlink:href="#m6bafb73e6a" x="138.816708" y="110.025553" style="stroke: #000000; stroke-linejoin: bevel"/>
     <use xlink:href="#m6bafb73e6a" x="171.720885" y="27.765111" style="stroke: #000000; stroke-linejoin: bevel"/>
     <use xlink:href="#m6bafb73e6a" x="179.946929" y="89.460442" style="stroke: #000000; stroke-linejoin: bevel"/>
     <use xlink:href="#m6bafb73e6a" x="225.190172" y="35.991155" style="stroke: #000000; stroke-linejoin: bevel"/>
    </g>
   </g>
   <g id="line2d_32">
    <path d="M 179.946929 68.895332 
L 179.946929 89.460442 
" clip-path="url(#p12c8df68f6)" style="fill: none; stroke-dasharray: 5.55,2.4; stroke-dashoffset: 0; stroke: #000000; stroke-width: 1.5"/>
   </g>
   <g id="line2d_33">
    <path d="M 179.946929 68.895332 
L 225.190172 35.991155 
" clip-path="url(#p12c8df68f6)" style="fill: none; stroke-dasharray: 5.55,2.4; stroke-dashoffset: 0; stroke: #000000; stroke-width: 1.5"/>
   </g>
   <g id="line2d_34">
    <path d="M 15.426044 68.895332 
L 56.556265 68.895332 
L 97.686486 68.895332 
L 138.816708 68.895332 
L 179.946929 68.895332 
" clip-path="url(#p12c8df68f6)" style="fill: none; stroke: #0000ff; stroke-width: 1.5; stroke-linecap: square"/>
   </g>
   <g id="line2d_35">
    <path d="M 15.426044 68.895332 
L 55.59737 68.895332 
L 93.625972 68.891245 
L 130.585994 68.80841 
L 171.941573 68.730993 
" clip-path="url(#p12c8df68f6)" style="fill: none; stroke: #000000; stroke-width: 1.5; stroke-linecap: square"/>
   </g>
   <g id="line2d_36">
    <path d="M 55.59737 68.895332 
L 55.59737 68.895332 
L 93.565185 72.375921 
L 130.36841 75.777794 
L 171.621316 79.63843 
" clip-path="url(#p12c8df68f6)" style="fill: none; stroke: #ff0000; stroke-width: 1.5; stroke-linecap: square"/>
    <defs>
     <path id="mfaea58f430" d="M 0 2 
C 0.530406 2 1.03916 1.789267 1.414214 1.414214 
C 1.789267 1.03916 2 0.530406 2 0 
C 2 -0.530406 1.789267 -1.03916 1.414214 -1.414214 
C 1.03916 -1.789267 0.530406 -2 0 -2 
C -0.530406 -2 -1.03916 -1.789267 -1.414214 -1.414214 
C -1.789267 -1.03916 -2 -0.530406 -2 0 
C -2 0.530406 -1.789267 1.03916 -1.414214 1.414214 
C -1.03916 1.789267 -0.530406 2 0 2 
z
" style="stroke: #ff0000"/>
    </defs>
    <g clip-path="url(#p12c8df68f6)">
     <use xlink:href="#mfaea58f430" x="55.59737" y="68.895332" style="fill: #ff0000; stroke: #ff0000"/>
     <use xlink:href="#mfaea58f430" x="55.59737" y="68.895332" style="fill: #ff0000; stroke: #ff0000"/>
     <use xlink:href="#mfaea58f430" x="93.565185" y="72.375921" style="fill: #ff0000; stroke: #ff0000"/>
     <use xlink:href="#mfaea58f430" x="130.36841" y="75.777794" style="fill: #ff0000; stroke: #ff0000"/>
     <use xlink:href="#mfaea58f430" x="171.621316" y="79.63843" style="fill: #ff0000; stroke: #ff0000"/>
    </g>
   </g>
   <g id="line2d_37">
    <path d="M 171.547494 78.455942 
L 171.546715 80.742946 
" clip-path="url(#p12c8df68f6)" style="fill: none; stroke: #0000ff; stroke-linecap: square"/>
   </g>
   <g id="line2d_38">
    <path d="M 182.936619 79.603322 
L 160.15759 79.595566 
" clip-path="url(#p12c8df68f6)" style="fill: none; stroke: #0000ff; stroke-linecap: square"/>
   </g>
   <g id="line2d_39">
    <path d="M 171.665198 78.948589 
L 171.577435 80.328272 
" clip-path="url(#p12c8df68f6)" style="fill: none; stroke: #ff0000; stroke-linecap: square"/>
   </g>
   <g id="line2d_40">
    <path d="M 180.373062 80.195133 
L 162.869571 79.081727 
" clip-path="url(#p12c8df68f6)" style="fill: none; stroke: #ff0000; stroke-linecap: square"/>
   </g>
   <g id="line2d_41">
    <path d="M 97.52698 31.62907 
L 97.47254 32.656365 
" clip-path="url(#p12c8df68f6)" style="fill: none; stroke: #008000; stroke-linecap: square"/>
   </g>
   <g id="line2d_42">
    <path d="M 106.52058 32.620769 
L 88.47894 31.664667 
" clip-path="url(#p12c8df68f6)" style="fill: none; stroke: #008000; stroke-linecap: square"/>
   </g>
   <g id="line2d_43">
    <path d="M 137.053898 113.49652 
L 136.945774 116.361293 
" clip-path="url(#p12c8df68f6)" style="fill: none; stroke: #008000; stroke-linecap: square"/>
   </g>
   <g id="line2d_44">
    <path d="M 145.867688 115.263603 
L 128.131984 114.59421 
" clip-path="url(#p12c8df68f6)" style="fill: none; stroke: #008000; stroke-linecap: square"/>
   </g>
   <g id="line2d_45">
    <path d="M 171.645575 31.369399 
L 171.354896 35.299676 
" clip-path="url(#p12c8df68f6)" style="fill: none; stroke: #008000; stroke-linecap: square"/>
   </g>
   <g id="line2d_46">
    <path d="M 180.419584 33.994204 
L 162.580887 32.674871 
" clip-path="url(#p12c8df68f6)" style="fill: none; stroke: #008000; stroke-linecap: square"/>
   </g>
   <g id="line2d_47">
    <path d="M 179.518826 93.119023 
L 179.322342 97.529702 
" clip-path="url(#p12c8df68f6)" style="fill: none; stroke: #008000; stroke-linecap: square"/>
   </g>
   <g id="line2d_48">
    <path d="M 188.275479 95.718825 
L 170.565689 94.9299 
" clip-path="url(#p12c8df68f6)" style="fill: none; stroke: #008000; stroke-linecap: square"/>
   </g>
   <g id="line2d_49">
    <path d="M 130.610953 116.333559 
L 130.470304 118.029541 
" clip-path="url(#p12c8df68f6)" style="fill: none; stroke: #008000; stroke-linecap: square"/>
   </g>
   <g id="line2d_50">
    <path d="M 138.998943 117.883002 
L 122.082314 116.480099 
" clip-path="url(#p12c8df68f6)" style="fill: none; stroke: #008000; stroke-linecap: square"/>
   </g>
   <g id="line2d_51">
    <path d="M 171.204999 37.319382 
L 170.886113 39.85971 
" clip-path="url(#p12c8df68f6)" style="fill: none; stroke: #008000; stroke-linecap: square"/>
   </g>
   <g id="line2d_52">
    <path d="M 180.095658 39.725598 
L 161.995454 37.453494 
" clip-path="url(#p12c8df68f6)" style="fill: none; stroke: #008000; stroke-linecap: square"/>
   </g>
   <g id="line2d_53">
    <path d="M 173.893961 99.19787 
L 173.553308 102.026009 
" clip-path="url(#p12c8df68f6)" style="fill: none; stroke: #008000; stroke-linecap: square"/>
   </g>
   <g id="line2d_54">
    <path d="M 182.294171 101.644271 
L 165.153099 99.579607 
" clip-path="url(#p12c8df68f6)" style="fill: none; stroke: #008000; stroke-linecap: square"/>
   </g>
   <g id="line2d_55">
    <path d="M 223.91665 49.865168 
L 223.179507 53.958223 
" clip-path="url(#p12c8df68f6)" style="fill: none; stroke: #008000; stroke-linecap: square"/>
   </g>
   <g id="line2d_56">
    <path d="M 232.481939 53.520647 
L 214.614219 50.302744 
" clip-path="url(#p12c8df68f6)" style="fill: none; stroke: #008000; stroke-linecap: square"/>
   </g>
   <g id="line2d_57">
    <path d="M 126.539487 115.84112 
L 126.461052 117.122188 
" clip-path="url(#p12c8df68f6)" style="fill: none; stroke: #008000; stroke-linecap: square"/>
   </g>
   <g id="line2d_58">
    <path d="M 135.301667 117.020526 
L 117.698873 115.942781 
" clip-path="url(#p12c8df68f6)" style="fill: none; stroke: #008000; stroke-linecap: square"/>
   </g>
   <g id="line2d_59">
    <path d="M 167.4902 36.911785 
L 167.360569 38.81967 
" clip-path="url(#p12c8df68f6)" style="fill: none; stroke: #008000; stroke-linecap: square"/>
   </g>
   <g id="line2d_60">
    <path d="M 176.210526 38.462631 
L 158.640243 37.268824 
" clip-path="url(#p12c8df68f6)" style="fill: none; stroke: #008000; stroke-linecap: square"/>
   </g>
   <g id="line2d_61">
    <path d="M 169.619064 99.65114 
L 169.52265 101.285076 
" clip-path="url(#p12c8df68f6)" style="fill: none; stroke: #008000; stroke-linecap: square"/>
   </g>
   <g id="line2d_62">
    <path d="M 178.421041 100.990332 
L 160.720672 99.945884 
" clip-path="url(#p12c8df68f6)" style="fill: none; stroke: #008000; stroke-linecap: square"/>
   </g>
   <g id="line2d_63">
    <path d="M 219.485638 49.957251 
L 219.308885 53.208408 
" clip-path="url(#p12c8df68f6)" style="fill: none; stroke: #008000; stroke-linecap: square"/>
   </g>
   <g id="line2d_64">
    <path d="M 228.088453 52.055338 
L 210.70607 51.11032 
" clip-path="url(#p12c8df68f6)" style="fill: none; stroke: #008000; stroke-linecap: square"/>
   </g>
   <g id="patch_17">
    <path d="M 7.2 130.590663 
L 7.2 7.2 
" style="fill: none; stroke: #000000; stroke-width: 0.8; stroke-linejoin: miter; stroke-linecap: square"/>
   </g>
   <g id="patch_18">
    <path d="M 311.563636 130.590663 
L 311.563636 7.2 
" style="fill: none; stroke: #000000; stroke-width: 0.8; stroke-linejoin: miter; stroke-linecap: square"/>
   </g>
   <g id="patch_19">
    <path d="M 7.2 130.590663 
L 311.563636 130.590663 
" style="fill: none; stroke: #000000; stroke-width: 0.8; stroke-linejoin: miter; stroke-linecap: square"/>
   </g>
   <g id="patch_20">
    <path d="M 7.2 7.2 
L 311.563636 7.2 
" style="fill: none; stroke: #000000; stroke-width: 0.8; stroke-linejoin: miter; stroke-linecap: square"/>
   </g>
  </g>
 </g>
 <defs>
  <clipPath id="p12c8df68f6">
   <rect x="7.2" y="7.2" width="304.363636" height="123.390663"/>
  </clipPath>
 </defs>
</svg>
