<?xml version="1.0" encoding="utf-8" standalone="no"?>
<!DOCTYPE svg PUBLIC "-//W3C//DTD SVG 1.1//EN"
  "http://www.w3.org/Graphics/SVG/1.1/DTD/svg11.dtd">
<svg xmlns:xlink="http://www.w3.org/1999/xlink" width="318.763636pt" height="137.790663pt" viewBox="0 0 318.763636 137.790663" xmlns="http://www.w3.org/2000/svg" version="1.1">
 <metadata>
  <rdf:RDF xmlns:dc="http://purl.org/dc/elements/1.1/" xmlns:cc="http://creativecommons.org/ns#" xmlns:rdf="http://www.w3.org/1999/02/22-rdf-syntax-ns#">
   <cc:Work>
    <dc:type rdf:resource="http://purl.org/dc/dcmitype/StillImage"/>
    <dc:date>2025-01-13T14:00:33.805749</dc:date>
    <dc:format>image/svg+xml</dc:format>
    <dc:creator>
     <cc:Agent>
      <dc:title>Matplotlib v3.8.3, https://matplotlib.org/</dc:title>
     </cc:Agent>
    </dc:creator>
   </cc:Work>
  </rdf:RDF>
 </metadata>
 <defs>
  <style type="text/css">*{stroke-linejoin: round; stroke-linecap: butt}</style>
 </defs>
 <g id="figure_1">
  <g id="patch_1">
   <path d="M 0 137.790663 
L 318.763636 137.790663 
L 318.763636 0 
L 0 0 
z
" style="fill: #ffffff"/>
  </g>
  <g id="axes_1">
   <g id="patch_2">
    <path d="M 7.2 130.590663 
L 311.563636 130.590663 
L 311.563636 7.2 
L 7.2 7.2 
z
" style="fill: #ffffff"/>
   </g>
   <g id="patch_3">
    <path d="M 286.812982 91.320347 
C 286.796387 91.582981 287.68715 91.892185 289.289091 92.179859 
C 290.891032 92.467534 293.073359 92.710191 295.355441 92.85439 
C 297.637522 92.998589 299.833036 93.032555 301.458446 92.948808 
C 303.083856 92.865061 304.006455 92.670439 304.02305 92.407805 
C 304.039645 92.14517 303.148882 91.835967 301.546941 91.548292 
C 299.945 91.260618 297.762673 91.01796 295.480591 90.873761 
C 293.19851 90.729563 291.002996 90.695596 289.377586 90.779343 
C 287.752176 90.86309 286.829578 91.057712 286.812982 91.320347 
L 286.812982 91.320347 
z
" clip-path="url(#p43ae93fa3a)" style="fill: none; stroke: #0000ff; stroke-linejoin: miter"/>
   </g>
   <g id="patch_4">
    <path d="M 286.812982 91.320347 
C 286.796387 91.582981 287.68715 91.892185 289.289091 92.179859 
C 290.891032 92.467534 293.073359 92.710191 295.355441 92.85439 
C 297.637522 92.998589 299.833036 93.032555 301.458446 92.948808 
C 303.083856 92.865061 304.006455 92.670439 304.02305 92.407805 
C 304.039645 92.14517 303.148882 91.835967 301.546941 91.548292 
C 299.945 91.260618 297.762673 91.01796 295.480591 90.873761 
C 293.19851 90.729563 291.002996 90.695596 289.377586 90.779343 
C 287.752176 90.86309 286.829578 91.057712 286.812982 91.320347 
L 286.812982 91.320347 
z
" clip-path="url(#p43ae93fa3a)" style="fill: none; stroke: #ff0000; stroke-linejoin: miter"/>
   </g>
   <g id="patch_5">
    <path d="M 88.658981 31.675692 
C 88.651786 31.81189 89.576405 31.991737 91.229202 32.175623 
C 92.881998 32.35951 95.128029 32.532422 97.472631 32.656279 
C 99.817233 32.780136 102.06898 32.844824 103.731952 32.836097 
C 105.394923 32.827371 106.333344 32.745941 106.340539 32.609743 
C 106.347734 32.473545 105.423115 32.293699 103.770318 32.109812 
C 102.117522 31.925926 99.871492 31.753013 97.52689 31.629156 
C 95.182288 31.5053 92.93054 31.440611 91.267569 31.449338 
C 89.604597 31.458065 88.666176 31.539494 88.658981 31.675692 
L 88.658981 31.675692 
z
" clip-path="url(#p43ae93fa3a)" style="fill: none; stroke: #008000; stroke-linejoin: miter"/>
   </g>
   <g id="patch_6">
    <path d="M 128.307111 114.606957 
C 128.293044 114.986755 129.195472 115.384971 130.815646 115.713903 
C 132.435819 116.042835 134.641458 116.275627 136.946796 116.361009 
C 139.252134 116.446391 141.46895 116.377392 143.109016 116.169208 
C 144.749083 115.961025 145.678495 115.630654 145.692562 115.250856 
C 145.706628 114.871058 144.8042 114.472841 143.184026 114.14391 
C 141.563853 113.814978 139.358214 113.582186 137.052876 113.496804 
C 134.747539 113.411422 132.530723 113.480421 130.890656 113.688604 
C 129.25059 113.896788 128.321177 114.227159 128.307111 114.606957 
L 128.307111 114.606957 
z
" clip-path="url(#p43ae93fa3a)" style="fill: none; stroke: #008000; stroke-linejoin: miter"/>
   </g>
   <g id="patch_7">
    <path d="M 162.757365 32.681374 
C 162.718437 33.202439 163.602303 33.771055 165.2143 34.261989 
C 166.826297 34.752923 169.034814 35.126094 171.353451 35.299315 
C 173.672087 35.472536 175.911536 35.431664 177.578586 35.185701 
C 179.245636 34.939738 180.204178 34.508766 180.243106 33.987701 
C 180.282034 33.466636 179.398168 32.89802 177.786171 32.407086 
C 176.174174 31.916152 173.965657 31.542981 171.64702 31.36976 
C 169.328384 31.196539 167.088935 31.237411 165.421885 31.483374 
C 163.754836 31.729337 162.796293 32.160309 162.757365 32.681374 
L 162.757365 32.681374 
z
" clip-path="url(#p43ae93fa3a)" style="fill: none; stroke: #008000; stroke-linejoin: miter"/>
   </g>
   <g id="patch_8">
    <path d="M 170.741676 94.942812 
C 170.715965 95.527656 171.605768 96.128826 173.215116 96.613924 
C 174.824464 97.099022 177.021961 97.42844 179.323634 97.529628 
C 181.625307 97.630816 183.843235 97.495513 185.488944 97.153517 
C 187.134654 96.811521 188.07378 96.290756 188.099491 95.705912 
C 188.125203 95.121069 187.2354 94.519898 185.626052 94.034801 
C 184.016704 93.549703 181.819207 93.220285 179.517534 93.119097 
C 177.215861 93.017908 174.997933 93.153212 173.352223 93.495207 
C 171.706514 93.837203 170.767388 94.357969 170.741676 94.942812 
L 170.741676 94.942812 
z
" clip-path="url(#p43ae93fa3a)" style="fill: none; stroke: #008000; stroke-linejoin: miter"/>
   </g>
   <g id="patch_9">
    <path d="M 122.248569 116.49854 
C 122.230052 116.723342 123.085995 117.010933 124.627886 117.297974 
C 126.169777 117.585016 128.271728 117.848072 130.470807 118.029209 
C 132.669887 118.210345 134.786551 118.294773 136.354629 118.263896 
C 137.922706 118.23302 138.814171 118.089362 138.832688 117.86456 
C 138.851204 117.639759 137.995262 117.352168 136.453371 117.065126 
C 134.91148 116.778085 132.809529 116.515028 130.610449 116.333892 
C 128.41137 116.152755 126.294705 116.068328 124.726628 116.099204 
C 123.15855 116.13008 122.267086 116.273738 122.248569 116.49854 
L 122.248569 116.49854 
z
" clip-path="url(#p43ae93fa3a)" style="fill: none; stroke: #008000; stroke-linejoin: miter"/>
   </g>
   <g id="patch_10">
    <path d="M 162.17611 37.476548 
C 162.133842 37.813386 163.027839 38.253746 164.66121 38.700644 
C 166.294582 39.147541 168.533969 39.564489 170.886174 39.85966 
C 173.238378 40.15483 175.511352 40.304124 177.204501 40.27466 
C 178.897649 40.245197 179.872733 40.039382 179.915001 39.702544 
C 179.95727 39.365706 179.063273 38.925346 177.429901 38.478448 
C 175.79653 38.031551 173.557143 37.614603 171.204938 37.319432 
C 168.852734 37.024262 166.579759 36.874968 164.886611 36.904432 
C 163.193463 36.933895 162.218379 37.13971 162.17611 37.476548 
L 162.17611 37.476548 
z
" clip-path="url(#p43ae93fa3a)" style="fill: none; stroke: #008000; stroke-linejoin: miter"/>
   </g>
   <g id="patch_11">
    <path d="M 165.322673 99.605954 
C 165.277773 99.980909 166.119885 100.446555 167.663543 100.900337 
C 169.2072 101.35412 171.326371 101.758991 173.554332 102.025781 
C 175.782294 102.292571 177.937142 102.399499 179.544298 102.323015 
C 181.151453 102.246531 182.079698 101.99288 182.124597 101.617925 
C 182.169497 101.242969 181.327385 100.777324 179.783727 100.323541 
C 178.24007 99.869759 176.120899 99.464888 173.892937 99.198098 
C 171.664976 98.931307 169.510128 98.824379 167.902972 98.900863 
C 166.295817 98.977347 165.367572 99.230999 165.322673 99.605954 
L 165.322673 99.605954 
z
" clip-path="url(#p43ae93fa3a)" style="fill: none; stroke: #008000; stroke-linejoin: miter"/>
   </g>
   <g id="patch_12">
    <path d="M 214.792837 50.333712 
C 214.695022 50.876427 215.523707 51.563253 217.096385 52.242925 
C 218.669063 52.922597 220.85733 53.539623 223.179247 53.958109 
C 225.501165 54.376595 227.767157 54.562374 229.478166 54.474531 
C 231.189175 54.386688 232.205505 54.032395 232.30332 53.48968 
C 232.401135 52.946964 231.57245 52.260138 229.999773 51.580466 
C 228.427095 50.900794 226.238827 50.283769 223.91691 49.865282 
C 221.594993 49.446796 219.329 49.261017 217.617991 49.34886 
C 215.906982 49.436703 214.890652 49.790996 214.792837 50.333712 
L 214.792837 50.333712 
z
" clip-path="url(#p43ae93fa3a)" style="fill: none; stroke: #008000; stroke-linejoin: miter"/>
   </g>
   <g id="patch_13">
    <path d="M 117.871107 115.95601 
C 117.860763 116.125832 118.760063 116.344106 120.370949 116.56276 
C 121.981834 116.781415 124.172783 116.982597 126.461263 117.121999 
C 128.749744 117.261402 130.948912 117.327643 132.574427 117.306133 
C 134.199942 117.284623 135.119087 117.177119 135.129432 117.007298 
C 135.139777 116.837476 134.240476 116.619202 132.629591 116.400548 
C 131.018705 116.181893 128.827757 115.980711 126.539276 115.841308 
C 124.250796 115.701906 122.051627 115.635665 120.426112 115.657175 
C 118.800597 115.678685 117.881452 115.786188 117.871107 115.95601 
L 117.871107 115.95601 
z
" clip-path="url(#p43ae93fa3a)" style="fill: none; stroke: #008000; stroke-linejoin: miter"/>
   </g>
   <g id="patch_14">
    <path d="M 158.817338 37.28328 
C 158.800224 37.536218 159.690806 37.840202 161.292944 38.128281 
C 162.895083 38.41636 165.07797 38.665015 167.360851 38.819482 
C 169.643731 38.973948 171.840218 39.021616 173.46656 38.951986 
C 175.092902 38.882356 176.016316 38.701113 176.033431 38.448175 
C 176.050545 38.195236 175.159963 37.891253 173.557825 37.603174 
C 171.955686 37.315095 169.772799 37.06644 167.489919 36.911973 
C 165.207038 36.757506 163.010551 36.709839 161.384209 36.779469 
C 159.757867 36.849099 158.834453 37.030341 158.817338 37.28328 
L 158.817338 37.28328 
z
" clip-path="url(#p43ae93fa3a)" style="fill: none; stroke: #008000; stroke-linejoin: miter"/>
   </g>
   <g id="patch_15">
    <path d="M 160.89512 99.961679 
C 160.882482 100.178186 161.78449 100.439215 163.402487 100.687277 
C 165.020485 100.93534 167.22237 101.150183 169.523202 101.284489 
C 171.824034 101.418796 174.035962 101.461601 175.671832 101.403476 
C 177.307703 101.345352 178.233956 101.191044 178.246594 100.974537 
C 178.259232 100.75803 177.357224 100.497001 175.739226 100.248939 
C 174.121229 100.000876 171.919344 99.786033 169.618511 99.651727 
C 167.317679 99.51742 165.105752 99.474615 163.469881 99.53274 
C 161.83401 99.590864 160.907758 99.745172 160.89512 99.961679 
L 160.89512 99.961679 
z
" clip-path="url(#p43ae93fa3a)" style="fill: none; stroke: #008000; stroke-linejoin: miter"/>
   </g>
   <g id="patch_16">
    <path d="M 210.881952 51.125006 
C 210.858779 51.556002 211.73378 52.017643 213.314244 52.408257 
C 214.894708 52.798872 217.051599 53.086568 219.309885 53.207984 
C 221.568172 53.3294 223.743475 53.274623 225.356711 53.055717 
C 226.969946 52.836811 227.889399 52.471649 227.912571 52.040653 
C 227.935744 51.609656 227.060743 51.148016 225.480279 50.757401 
C 223.899814 50.366787 221.742924 50.079091 219.484637 49.957674 
C 217.226351 49.836258 215.051047 49.891035 213.437812 50.109941 
C 211.824577 50.328847 210.905124 50.69401 210.881952 51.125006 
L 210.881952 51.125006 
z
" clip-path="url(#p43ae93fa3a)" style="fill: none; stroke: #008000; stroke-linejoin: miter"/>
   </g>
   <g id="patch_17">
    <path d="M 212.344764 51.528795 
C 212.325469 51.805458 213.17907 52.131649 214.717572 52.435528 
C 216.256074 52.739407 218.353864 52.996163 220.548929 53.14925 
C 222.743994 53.302336 224.857117 53.339254 226.422905 53.251873 
C 227.988694 53.164491 228.87931 52.959944 228.898605 52.683281 
C 228.9179 52.406618 228.064298 52.080427 226.525796 51.776548 
C 224.987295 51.47267 222.889504 51.215913 220.694439 51.062826 
C 218.499374 50.90974 216.386252 50.872822 214.820463 50.960203 
C 213.254674 51.047585 212.364059 51.252132 212.344764 51.528795 
L 212.344764 51.528795 
z
" clip-path="url(#p43ae93fa3a)" style="fill: none; stroke: #008000; stroke-linejoin: miter"/>
   </g>
   <g id="matplotlib.axis_1">
    <g id="xtick_1">
     <g id="line2d_1">
      <defs>
       <path id="mec772ff1e5" d="M 0 0 
L 0 -3 
" style="stroke: #000000; stroke-width: 0.8"/>
      </defs>
      <g>
       <use xlink:href="#mec772ff1e5" x="15.426044" y="130.590663" style="stroke: #000000; stroke-width: 0.8"/>
      </g>
     </g>
     <g id="line2d_2">
      <defs>
       <path id="m181983520e" d="M 0 0 
L 0 3 
" style="stroke: #000000; stroke-width: 0.8"/>
      </defs>
      <g>
       <use xlink:href="#m181983520e" x="15.426044" y="7.2" style="stroke: #000000; stroke-width: 0.8"/>
      </g>
     </g>
    </g>
    <g id="xtick_2">
     <g id="line2d_3">
      <g>
       <use xlink:href="#mec772ff1e5" x="56.556265" y="130.590663" style="stroke: #000000; stroke-width: 0.8"/>
      </g>
     </g>
     <g id="line2d_4">
      <g>
       <use xlink:href="#m181983520e" x="56.556265" y="7.2" style="stroke: #000000; stroke-width: 0.8"/>
      </g>
     </g>
    </g>
    <g id="xtick_3">
     <g id="line2d_5">
      <g>
       <use xlink:href="#mec772ff1e5" x="97.686486" y="130.590663" style="stroke: #000000; stroke-width: 0.8"/>
      </g>
     </g>
     <g id="line2d_6">
      <g>
       <use xlink:href="#m181983520e" x="97.686486" y="7.2" style="stroke: #000000; stroke-width: 0.8"/>
      </g>
     </g>
    </g>
    <g id="xtick_4">
     <g id="line2d_7">
      <g>
       <use xlink:href="#mec772ff1e5" x="138.816708" y="130.590663" style="stroke: #000000; stroke-width: 0.8"/>
      </g>
     </g>
     <g id="line2d_8">
      <g>
       <use xlink:href="#m181983520e" x="138.816708" y="7.2" style="stroke: #000000; stroke-width: 0.8"/>
      </g>
     </g>
    </g>
    <g id="xtick_5">
     <g id="line2d_9">
      <g>
       <use xlink:href="#mec772ff1e5" x="179.946929" y="130.590663" style="stroke: #000000; stroke-width: 0.8"/>
      </g>
     </g>
     <g id="line2d_10">
      <g>
       <use xlink:href="#m181983520e" x="179.946929" y="7.2" style="stroke: #000000; stroke-width: 0.8"/>
      </g>
     </g>
    </g>
    <g id="xtick_6">
     <g id="line2d_11">
      <g>
       <use xlink:href="#mec772ff1e5" x="221.07715" y="130.590663" style="stroke: #000000; stroke-width: 0.8"/>
      </g>
     </g>
     <g id="line2d_12">
      <g>
       <use xlink:href="#m181983520e" x="221.07715" y="7.2" style="stroke: #000000; stroke-width: 0.8"/>
      </g>
     </g>
    </g>
    <g id="xtick_7">
     <g id="line2d_13">
      <g>
       <use xlink:href="#mec772ff1e5" x="262.207371" y="130.590663" style="stroke: #000000; stroke-width: 0.8"/>
      </g>
     </g>
     <g id="line2d_14">
      <g>
       <use xlink:href="#m181983520e" x="262.207371" y="7.2" style="stroke: #000000; stroke-width: 0.8"/>
      </g>
     </g>
    </g>
    <g id="xtick_8">
     <g id="line2d_15">
      <g>
       <use xlink:href="#mec772ff1e5" x="303.337592" y="130.590663" style="stroke: #000000; stroke-width: 0.8"/>
      </g>
     </g>
     <g id="line2d_16">
      <g>
       <use xlink:href="#m181983520e" x="303.337592" y="7.2" style="stroke: #000000; stroke-width: 0.8"/>
      </g>
     </g>
    </g>
   </g>
   <g id="matplotlib.axis_2">
    <g id="ytick_1">
     <g id="line2d_17">
      <defs>
       <path id="m56354939a6" d="M 0 0 
L 3 0 
" style="stroke: #000000; stroke-width: 0.8"/>
      </defs>
      <g>
       <use xlink:href="#m56354939a6" x="7.2" y="130.590663" style="stroke: #000000; stroke-width: 0.8"/>
      </g>
     </g>
     <g id="line2d_18">
      <defs>
       <path id="mef046d6ea8" d="M 0 0 
L -3 0 
" style="stroke: #000000; stroke-width: 0.8"/>
      </defs>
      <g>
       <use xlink:href="#mef046d6ea8" x="311.563636" y="130.590663" style="stroke: #000000; stroke-width: 0.8"/>
      </g>
     </g>
    </g>
    <g id="ytick_2">
     <g id="line2d_19">
      <g>
       <use xlink:href="#m56354939a6" x="7.2" y="110.025553" style="stroke: #000000; stroke-width: 0.8"/>
      </g>
     </g>
     <g id="line2d_20">
      <g>
       <use xlink:href="#mef046d6ea8" x="311.563636" y="110.025553" style="stroke: #000000; stroke-width: 0.8"/>
      </g>
     </g>
    </g>
    <g id="ytick_3">
     <g id="line2d_21">
      <g>
       <use xlink:href="#m56354939a6" x="7.2" y="89.460442" style="stroke: #000000; stroke-width: 0.8"/>
      </g>
     </g>
     <g id="line2d_22">
      <g>
       <use xlink:href="#mef046d6ea8" x="311.563636" y="89.460442" style="stroke: #000000; stroke-width: 0.8"/>
      </g>
     </g>
    </g>
    <g id="ytick_4">
     <g id="line2d_23">
      <g>
       <use xlink:href="#m56354939a6" x="7.2" y="68.895332" style="stroke: #000000; stroke-width: 0.8"/>
      </g>
     </g>
     <g id="line2d_24">
      <g>
       <use xlink:href="#mef046d6ea8" x="311.563636" y="68.895332" style="stroke: #000000; stroke-width: 0.8"/>
      </g>
     </g>
    </g>
    <g id="ytick_5">
     <g id="line2d_25">
      <g>
       <use xlink:href="#m56354939a6" x="7.2" y="48.330221" style="stroke: #000000; stroke-width: 0.8"/>
      </g>
     </g>
     <g id="line2d_26">
      <g>
       <use xlink:href="#mef046d6ea8" x="311.563636" y="48.330221" style="stroke: #000000; stroke-width: 0.8"/>
      </g>
     </g>
    </g>
    <g id="ytick_6">
     <g id="line2d_27">
      <g>
       <use xlink:href="#m56354939a6" x="7.2" y="27.765111" style="stroke: #000000; stroke-width: 0.8"/>
      </g>
     </g>
     <g id="line2d_28">
      <g>
       <use xlink:href="#mef046d6ea8" x="311.563636" y="27.765111" style="stroke: #000000; stroke-width: 0.8"/>
      </g>
     </g>
    </g>
    <g id="ytick_7">
     <g id="line2d_29">
      <g>
       <use xlink:href="#m56354939a6" x="7.2" y="7.2" style="stroke: #000000; stroke-width: 0.8"/>
      </g>
     </g>
     <g id="line2d_30">
      <g>
       <use xlink:href="#mef046d6ea8" x="311.563636" y="7.2" style="stroke: #000000; stroke-width: 0.8"/>
      </g>
     </g>
    </g>
   </g>
   <g id="line2d_31">
    <defs>
     <path id="m8e1a800beb" d="M 0 -5 
L -1.12257 -1.545085 
L -4.755283 -1.545085 
L -1.816356 0.59017 
L -2.938926 4.045085 
L -0 1.90983 
L 2.938926 4.045085 
L 1.816356 0.59017 
L 4.755283 -1.545085 
L 1.12257 -1.545085 
z
" style="stroke: #000000; stroke-linejoin: bevel"/>
    </defs>
    <g clip-path="url(#p43ae93fa3a)">
     <use xlink:href="#m8e1a800beb" x="97.686486" y="27.765111" style="stroke: #000000; stroke-linejoin: bevel"/>
     <use xlink:href="#m8e1a800beb" x="138.816708" y="110.025553" style="stroke: #000000; stroke-linejoin: bevel"/>
     <use xlink:href="#m8e1a800beb" x="171.720885" y="27.765111" style="stroke: #000000; stroke-linejoin: bevel"/>
     <use xlink:href="#m8e1a800beb" x="179.946929" y="89.460442" style="stroke: #000000; stroke-linejoin: bevel"/>
     <use xlink:href="#m8e1a800beb" x="225.190172" y="35.991155" style="stroke: #000000; stroke-linejoin: bevel"/>
    </g>
   </g>
   <g id="line2d_32">
    <path d="M 15.426044 68.895332 
L 56.556265 68.895332 
L 97.686486 68.895332 
L 138.816708 68.895332 
L 179.946929 68.895332 
L 221.07715 68.895332 
L 262.207371 68.895332 
L 303.337592 68.895332 
" clip-path="url(#p43ae93fa3a)" style="fill: none; stroke: #0000ff; stroke-width: 1.5; stroke-linecap: square"/>
   </g>
   <g id="line2d_33">
    <path d="M 15.426044 68.895332 
L 55.59737 68.895332 
L 93.625972 68.891245 
L 130.585994 68.80841 
L 171.941573 68.730993 
L 213.962924 68.650939 
L 255.613054 68.600285 
L 296.34026 68.494236 
" clip-path="url(#p43ae93fa3a)" style="fill: none; stroke: #000000; stroke-width: 1.5; stroke-linecap: square"/>
   </g>
   <g id="line2d_34">
    <path d="M 55.59737 68.895332 
L 55.59737 68.895332 
L 93.565185 72.375921 
L 130.36841 75.777794 
L 171.621316 79.63843 
L 213.439327 83.768123 
L 254.885038 87.889884 
L 295.418016 91.864076 
" clip-path="url(#p43ae93fa3a)" style="fill: none; stroke: #ff0000; stroke-width: 1.5; stroke-linecap: square"/>
    <defs>
     <path id="mf16497cb6a" d="M 0 2 
C 0.530406 2 1.03916 1.789267 1.414214 1.414214 
C 1.789267 1.03916 2 0.530406 2 0 
C 2 -0.530406 1.789267 -1.03916 1.414214 -1.414214 
C 1.03916 -1.789267 0.530406 -2 0 -2 
C -0.530406 -2 -1.03916 -1.789267 -1.414214 -1.414214 
C -1.789267 -1.03916 -2 -0.530406 -2 0 
C -2 0.530406 -1.789267 1.03916 -1.414214 1.414214 
C -1.03916 1.789267 -0.530406 2 0 2 
z
" style="stroke: #ff0000"/>
    </defs>
    <g clip-path="url(#p43ae93fa3a)">
     <use xlink:href="#mf16497cb6a" x="55.59737" y="68.895332" style="fill: #ff0000; stroke: #ff0000"/>
     <use xlink:href="#mf16497cb6a" x="55.59737" y="68.895332" style="fill: #ff0000; stroke: #ff0000"/>
     <use xlink:href="#mf16497cb6a" x="93.565185" y="72.375921" style="fill: #ff0000; stroke: #ff0000"/>
     <use xlink:href="#mf16497cb6a" x="130.36841" y="75.777794" style="fill: #ff0000; stroke: #ff0000"/>
     <use xlink:href="#mf16497cb6a" x="171.621316" y="79.63843" style="fill: #ff0000; stroke: #ff0000"/>
     <use xlink:href="#mf16497cb6a" x="213.439327" y="83.768123" style="fill: #ff0000; stroke: #ff0000"/>
     <use xlink:href="#mf16497cb6a" x="254.885038" y="87.889884" style="fill: #ff0000; stroke: #ff0000"/>
     <use xlink:href="#mf16497cb6a" x="295.418016" y="91.864076" style="fill: #ff0000; stroke: #ff0000"/>
    </g>
   </g>
   <g id="line2d_35">
    <path d="M 295.480591 90.873761 
L 295.355441 92.85439 
" clip-path="url(#p43ae93fa3a)" style="fill: none; stroke: #0000ff; stroke-linecap: square"/>
   </g>
   <g id="line2d_36">
    <path d="M 304.02305 92.407805 
L 286.812982 91.320347 
" clip-path="url(#p43ae93fa3a)" style="fill: none; stroke: #0000ff; stroke-linecap: square"/>
   </g>
   <g id="line2d_37">
    <path d="M 295.480591 90.873761 
L 295.355441 92.85439 
" clip-path="url(#p43ae93fa3a)" style="fill: none; stroke: #ff0000; stroke-linecap: square"/>
   </g>
   <g id="line2d_38">
    <path d="M 304.02305 92.407805 
L 286.812982 91.320347 
" clip-path="url(#p43ae93fa3a)" style="fill: none; stroke: #ff0000; stroke-linecap: square"/>
   </g>
   <g id="line2d_39">
    <path d="M 97.52689 31.629156 
L 97.472631 32.656279 
" clip-path="url(#p43ae93fa3a)" style="fill: none; stroke: #008000; stroke-linecap: square"/>
   </g>
   <g id="line2d_40">
    <path d="M 106.340539 32.609743 
L 88.658981 31.675692 
" clip-path="url(#p43ae93fa3a)" style="fill: none; stroke: #008000; stroke-linecap: square"/>
   </g>
   <g id="line2d_41">
    <path d="M 137.052876 113.496804 
L 136.946796 116.361009 
" clip-path="url(#p43ae93fa3a)" style="fill: none; stroke: #008000; stroke-linecap: square"/>
   </g>
   <g id="line2d_42">
    <path d="M 145.692562 115.250856 
L 128.307111 114.606957 
" clip-path="url(#p43ae93fa3a)" style="fill: none; stroke: #008000; stroke-linecap: square"/>
   </g>
   <g id="line2d_43">
    <path d="M 171.64702 31.36976 
L 171.353451 35.299315 
" clip-path="url(#p43ae93fa3a)" style="fill: none; stroke: #008000; stroke-linecap: square"/>
   </g>
   <g id="line2d_44">
    <path d="M 180.243106 33.987701 
L 162.757365 32.681374 
" clip-path="url(#p43ae93fa3a)" style="fill: none; stroke: #008000; stroke-linecap: square"/>
   </g>
   <g id="line2d_45">
    <path d="M 179.517534 93.119097 
L 179.323634 97.529628 
" clip-path="url(#p43ae93fa3a)" style="fill: none; stroke: #008000; stroke-linecap: square"/>
   </g>
   <g id="line2d_46">
    <path d="M 188.099491 95.705912 
L 170.741676 94.942812 
" clip-path="url(#p43ae93fa3a)" style="fill: none; stroke: #008000; stroke-linecap: square"/>
   </g>
   <g id="line2d_47">
    <path d="M 130.610449 116.333892 
L 130.470807 118.029209 
" clip-path="url(#p43ae93fa3a)" style="fill: none; stroke: #008000; stroke-linecap: square"/>
   </g>
   <g id="line2d_48">
    <path d="M 138.832688 117.86456 
L 122.248569 116.49854 
" clip-path="url(#p43ae93fa3a)" style="fill: none; stroke: #008000; stroke-linecap: square"/>
   </g>
   <g id="line2d_49">
    <path d="M 171.204938 37.319432 
L 170.886174 39.85966 
" clip-path="url(#p43ae93fa3a)" style="fill: none; stroke: #008000; stroke-linecap: square"/>
   </g>
   <g id="line2d_50">
    <path d="M 179.915001 39.702544 
L 162.17611 37.476548 
" clip-path="url(#p43ae93fa3a)" style="fill: none; stroke: #008000; stroke-linecap: square"/>
   </g>
   <g id="line2d_51">
    <path d="M 173.892937 99.198098 
L 173.554332 102.025781 
" clip-path="url(#p43ae93fa3a)" style="fill: none; stroke: #008000; stroke-linecap: square"/>
   </g>
   <g id="line2d_52">
    <path d="M 182.124597 101.617925 
L 165.322673 99.605954 
" clip-path="url(#p43ae93fa3a)" style="fill: none; stroke: #008000; stroke-linecap: square"/>
   </g>
   <g id="line2d_53">
    <path d="M 223.91691 49.865282 
L 223.179247 53.958109 
" clip-path="url(#p43ae93fa3a)" style="fill: none; stroke: #008000; stroke-linecap: square"/>
   </g>
   <g id="line2d_54">
    <path d="M 232.30332 53.48968 
L 214.792837 50.333712 
" clip-path="url(#p43ae93fa3a)" style="fill: none; stroke: #008000; stroke-linecap: square"/>
   </g>
   <g id="line2d_55">
    <path d="M 126.539276 115.841308 
L 126.461263 117.121999 
" clip-path="url(#p43ae93fa3a)" style="fill: none; stroke: #008000; stroke-linecap: square"/>
   </g>
   <g id="line2d_56">
    <path d="M 135.129432 117.007298 
L 117.871107 115.95601 
" clip-path="url(#p43ae93fa3a)" style="fill: none; stroke: #008000; stroke-linecap: square"/>
   </g>
   <g id="line2d_57">
    <path d="M 167.489919 36.911973 
L 167.360851 38.819482 
" clip-path="url(#p43ae93fa3a)" style="fill: none; stroke: #008000; stroke-linecap: square"/>
   </g>
   <g id="line2d_58">
    <path d="M 176.033431 38.448175 
L 158.817338 37.28328 
" clip-path="url(#p43ae93fa3a)" style="fill: none; stroke: #008000; stroke-linecap: square"/>
   </g>
   <g id="line2d_59">
    <path d="M 169.618511 99.651727 
L 169.523202 101.284489 
" clip-path="url(#p43ae93fa3a)" style="fill: none; stroke: #008000; stroke-linecap: square"/>
   </g>
   <g id="line2d_60">
    <path d="M 178.246594 100.974537 
L 160.89512 99.961679 
" clip-path="url(#p43ae93fa3a)" style="fill: none; stroke: #008000; stroke-linecap: square"/>
   </g>
   <g id="line2d_61">
    <path d="M 219.484637 49.957674 
L 219.309885 53.207984 
" clip-path="url(#p43ae93fa3a)" style="fill: none; stroke: #008000; stroke-linecap: square"/>
   </g>
   <g id="line2d_62">
    <path d="M 227.912571 52.040653 
L 210.881952 51.125006 
" clip-path="url(#p43ae93fa3a)" style="fill: none; stroke: #008000; stroke-linecap: square"/>
   </g>
   <g id="line2d_63">
    <path d="M 220.694439 51.062826 
L 220.548929 53.14925 
" clip-path="url(#p43ae93fa3a)" style="fill: none; stroke: #008000; stroke-linecap: square"/>
   </g>
   <g id="line2d_64">
    <path d="M 228.898605 52.683281 
L 212.344764 51.528795 
" clip-path="url(#p43ae93fa3a)" style="fill: none; stroke: #008000; stroke-linecap: square"/>
   </g>
   <g id="patch_18">
    <path d="M 7.2 130.590663 
L 7.2 7.2 
" style="fill: none; stroke: #000000; stroke-width: 0.8; stroke-linejoin: miter; stroke-linecap: square"/>
   </g>
   <g id="patch_19">
    <path d="M 311.563636 130.590663 
L 311.563636 7.2 
" style="fill: none; stroke: #000000; stroke-width: 0.8; stroke-linejoin: miter; stroke-linecap: square"/>
   </g>
   <g id="patch_20">
    <path d="M 7.2 130.590663 
L 311.563636 130.590663 
" style="fill: none; stroke: #000000; stroke-width: 0.8; stroke-linejoin: miter; stroke-linecap: square"/>
   </g>
   <g id="patch_21">
    <path d="M 7.2 7.2 
L 311.563636 7.2 
" style="fill: none; stroke: #000000; stroke-width: 0.8; stroke-linejoin: miter; stroke-linecap: square"/>
   </g>
  </g>
 </g>
 <defs>
  <clipPath id="p43ae93fa3a">
   <rect x="7.2" y="7.2" width="304.363636" height="123.390663"/>
  </clipPath>
 </defs>
</svg>
