<?xml version="1.0" encoding="utf-8" standalone="no"?>
<!DOCTYPE svg PUBLIC "-//W3C//DTD SVG 1.1//EN"
  "http://www.w3.org/Graphics/SVG/1.1/DTD/svg11.dtd">
<svg xmlns:xlink="http://www.w3.org/1999/xlink" width="318.763636pt" height="137.790663pt" viewBox="0 0 318.763636 137.790663" xmlns="http://www.w3.org/2000/svg" version="1.1">
 <metadata>
  <rdf:RDF xmlns:dc="http://purl.org/dc/elements/1.1/" xmlns:cc="http://creativecommons.org/ns#" xmlns:rdf="http://www.w3.org/1999/02/22-rdf-syntax-ns#">
   <cc:Work>
    <dc:type rdf:resource="http://purl.org/dc/dcmitype/StillImage"/>
    <dc:date>2025-01-13T14:00:32.368126</dc:date>
    <dc:format>image/svg+xml</dc:format>
    <dc:creator>
     <cc:Agent>
      <dc:title>Matplotlib v3.8.3, https://matplotlib.org/</dc:title>
     </cc:Agent>
    </dc:creator>
   </cc:Work>
  </rdf:RDF>
 </metadata>
 <defs>
  <style type="text/css">*{stroke-linejoin: round; stroke-linecap: butt}</style>
 </defs>
 <g id="figure_1">
  <g id="patch_1">
   <path d="M 0 137.790663 
L 318.763636 137.790663 
L 318.763636 0 
L 0 0 
z
" style="fill: #ffffff"/>
  </g>
  <g id="axes_1">
   <g id="patch_2">
    <path d="M 7.2 130.590663 
L 311.563636 130.590663 
L 311.563636 7.2 
L 7.2 7.2 
z
" style="fill: #ffffff"/>
   </g>
   <g id="patch_3">
    <path d="M 55.59737 110.027609 
C 66.505777 110.027609 76.968873 105.693653 84.682282 97.980244 
C 92.395691 90.266835 96.729647 79.803739 96.729647 68.895332 
C 96.729647 57.986924 92.395691 47.523828 84.682282 39.810419 
C 76.968873 32.09701 66.505777 27.763054 55.59737 27.763054 
C 44.688962 27.763054 34.225866 32.09701 26.512457 39.810419 
C 18.799048 47.523828 14.465092 57.986924 14.465092 68.895332 
C 14.465092 79.803739 18.799048 90.266835 26.512457 97.980244 
C 34.225866 105.693653 44.688962 110.027609 55.59737 110.027609 
L 55.59737 110.027609 
z
" clip-path="url(#pd9789c828e)" style="fill: none; stroke: #0000ff; stroke-linejoin: miter"/>
   </g>
   <g id="patch_4">
    <path d="M 53.305115 47.311941 
C 48.456977 47.826836 44.04828 50.594873 41.049989 55.006425 
C 38.051697 59.417977 36.708608 65.11286 37.316521 70.836842 
C 37.924434 76.560824 40.433716 81.846567 44.291727 85.529948 
C 48.149737 89.213329 53.041487 90.993617 57.889625 90.478722 
C 62.737762 89.963828 67.146459 87.19579 70.144751 82.784239 
C 73.143042 78.372687 74.486131 72.677804 73.878218 66.953822 
C 73.270305 61.22984 70.761023 55.944096 66.903013 52.260715 
C 63.045002 48.577334 58.153253 46.797047 53.305115 47.311941 
L 53.305115 47.311941 
z
" clip-path="url(#pd9789c828e)" style="fill: none; stroke: #ff0000; stroke-linejoin: miter"/>
   </g>
   <g id="patch_5">
    <path d="M 76.440287 32.389935 
C 77.417055 36.786371 80.490727 40.528599 84.984362 42.792435 
C 89.477997 45.056272 95.02471 45.656885 100.402901 44.461998 
C 105.781092 43.26711 110.551657 40.374278 113.663933 36.420615 
C 116.776209 32.466953 117.976093 27.775258 116.999324 23.378822 
C 116.022556 18.982386 112.948884 15.240158 108.455249 12.976322 
C 103.961614 10.712485 98.414901 10.111872 93.03671 11.306759 
C 87.658519 12.501647 82.887954 15.394479 79.775678 19.348141 
C 76.663402 23.301804 75.463518 27.993499 76.440287 32.389935 
L 76.440287 32.389935 
z
" clip-path="url(#pd9789c828e)" style="fill: none; stroke: #008000; stroke-linejoin: miter"/>
   </g>
   <g id="patch_6">
    <path d="M 117.336425 119.466702 
C 119.27461 123.603276 123.277392 126.566549 128.463204 127.703892 
C 133.649015 128.841236 139.594459 128.059792 144.99012 125.531665 
C 150.385781 123.003537 154.791127 118.935137 157.235931 114.222481 
C 159.680736 109.509825 159.965392 104.537681 158.027207 100.401107 
C 156.089023 96.264532 152.086241 93.30126 146.900429 92.163916 
C 141.714617 91.026573 135.769174 91.808016 130.373513 94.336144 
C 124.977852 96.864271 120.572506 100.932672 118.127702 105.645328 
C 115.682897 110.357984 115.398241 115.330127 117.336425 119.466702 
L 117.336425 119.466702 
z
" clip-path="url(#pd9789c828e)" style="fill: none; stroke: #008000; stroke-linejoin: miter"/>
   </g>
   <g id="patch_7">
    <path d="M 156.119052 7.509483 
C 152.260053 10.294942 150.098651 15.100305 150.11087 20.867249 
C 150.123088 26.634192 152.30793 32.891869 156.184208 38.2621 
C 160.060487 43.63233 165.311722 47.676659 170.781389 49.504368 
C 176.251056 51.332078 181.492582 50.793945 185.351581 48.008486 
C 189.21058 45.223028 191.371982 40.417664 191.359763 34.650721 
C 191.347545 28.883778 189.162703 22.6261 185.286425 17.25587 
C 181.410146 11.885639 176.158911 7.841311 170.689244 6.013601 
C 165.219577 4.185891 159.978051 4.724024 156.119052 7.509483 
L 156.119052 7.509483 
z
" clip-path="url(#pd9789c828e)" style="fill: none; stroke: #008000; stroke-linejoin: miter"/>
   </g>
   <g id="patch_8">
    <path d="M 189.481086 66.224046 
C 185.023505 64.366498 179.721921 65.046827 174.743944 68.115197 
C 169.765967 71.183567 165.518028 76.38946 162.935687 82.586339 
C 160.353345 88.783217 159.647437 95.465133 160.973431 101.160472 
C 162.299424 106.855811 165.549059 111.099574 170.006639 112.957122 
C 174.464219 114.81467 179.765804 114.134341 184.743781 111.065971 
C 189.721757 107.9976 193.969696 102.791707 196.552038 96.594829 
C 199.13438 90.39795 199.840288 83.716035 198.514294 78.020695 
C 197.1883 72.325356 193.938666 68.081593 189.481086 66.224046 
L 189.481086 66.224046 
z
" clip-path="url(#pd9789c828e)" style="fill: none; stroke: #008000; stroke-linejoin: miter"/>
   </g>
   <g id="matplotlib.axis_1">
    <g id="xtick_1">
     <g id="line2d_1">
      <defs>
       <path id="m7387cf0d02" d="M 0 0 
L 0 -3 
" style="stroke: #000000; stroke-width: 0.8"/>
      </defs>
      <g>
       <use xlink:href="#m7387cf0d02" x="15.426044" y="130.590663" style="stroke: #000000; stroke-width: 0.8"/>
      </g>
     </g>
     <g id="line2d_2">
      <defs>
       <path id="ma34e805b7c" d="M 0 0 
L 0 3 
" style="stroke: #000000; stroke-width: 0.8"/>
      </defs>
      <g>
       <use xlink:href="#ma34e805b7c" x="15.426044" y="7.2" style="stroke: #000000; stroke-width: 0.8"/>
      </g>
     </g>
    </g>
    <g id="xtick_2">
     <g id="line2d_3">
      <g>
       <use xlink:href="#m7387cf0d02" x="56.556265" y="130.590663" style="stroke: #000000; stroke-width: 0.8"/>
      </g>
     </g>
     <g id="line2d_4">
      <g>
       <use xlink:href="#ma34e805b7c" x="56.556265" y="7.2" style="stroke: #000000; stroke-width: 0.8"/>
      </g>
     </g>
    </g>
    <g id="xtick_3">
     <g id="line2d_5">
      <g>
       <use xlink:href="#m7387cf0d02" x="97.686486" y="130.590663" style="stroke: #000000; stroke-width: 0.8"/>
      </g>
     </g>
     <g id="line2d_6">
      <g>
       <use xlink:href="#ma34e805b7c" x="97.686486" y="7.2" style="stroke: #000000; stroke-width: 0.8"/>
      </g>
     </g>
    </g>
    <g id="xtick_4">
     <g id="line2d_7">
      <g>
       <use xlink:href="#m7387cf0d02" x="138.816708" y="130.590663" style="stroke: #000000; stroke-width: 0.8"/>
      </g>
     </g>
     <g id="line2d_8">
      <g>
       <use xlink:href="#ma34e805b7c" x="138.816708" y="7.2" style="stroke: #000000; stroke-width: 0.8"/>
      </g>
     </g>
    </g>
    <g id="xtick_5">
     <g id="line2d_9">
      <g>
       <use xlink:href="#m7387cf0d02" x="179.946929" y="130.590663" style="stroke: #000000; stroke-width: 0.8"/>
      </g>
     </g>
     <g id="line2d_10">
      <g>
       <use xlink:href="#ma34e805b7c" x="179.946929" y="7.2" style="stroke: #000000; stroke-width: 0.8"/>
      </g>
     </g>
    </g>
    <g id="xtick_6">
     <g id="line2d_11">
      <g>
       <use xlink:href="#m7387cf0d02" x="221.07715" y="130.590663" style="stroke: #000000; stroke-width: 0.8"/>
      </g>
     </g>
     <g id="line2d_12">
      <g>
       <use xlink:href="#ma34e805b7c" x="221.07715" y="7.2" style="stroke: #000000; stroke-width: 0.8"/>
      </g>
     </g>
    </g>
    <g id="xtick_7">
     <g id="line2d_13">
      <g>
       <use xlink:href="#m7387cf0d02" x="262.207371" y="130.590663" style="stroke: #000000; stroke-width: 0.8"/>
      </g>
     </g>
     <g id="line2d_14">
      <g>
       <use xlink:href="#ma34e805b7c" x="262.207371" y="7.2" style="stroke: #000000; stroke-width: 0.8"/>
      </g>
     </g>
    </g>
    <g id="xtick_8">
     <g id="line2d_15">
      <g>
       <use xlink:href="#m7387cf0d02" x="303.337592" y="130.590663" style="stroke: #000000; stroke-width: 0.8"/>
      </g>
     </g>
     <g id="line2d_16">
      <g>
       <use xlink:href="#ma34e805b7c" x="303.337592" y="7.2" style="stroke: #000000; stroke-width: 0.8"/>
      </g>
     </g>
    </g>
   </g>
   <g id="matplotlib.axis_2">
    <g id="ytick_1">
     <g id="line2d_17">
      <defs>
       <path id="m1d73c432dc" d="M 0 0 
L 3 0 
" style="stroke: #000000; stroke-width: 0.8"/>
      </defs>
      <g>
       <use xlink:href="#m1d73c432dc" x="7.2" y="130.590663" style="stroke: #000000; stroke-width: 0.8"/>
      </g>
     </g>
     <g id="line2d_18">
      <defs>
       <path id="me6eb6cc302" d="M 0 0 
L -3 0 
" style="stroke: #000000; stroke-width: 0.8"/>
      </defs>
      <g>
       <use xlink:href="#me6eb6cc302" x="311.563636" y="130.590663" style="stroke: #000000; stroke-width: 0.8"/>
      </g>
     </g>
    </g>
    <g id="ytick_2">
     <g id="line2d_19">
      <g>
       <use xlink:href="#m1d73c432dc" x="7.2" y="110.025553" style="stroke: #000000; stroke-width: 0.8"/>
      </g>
     </g>
     <g id="line2d_20">
      <g>
       <use xlink:href="#me6eb6cc302" x="311.563636" y="110.025553" style="stroke: #000000; stroke-width: 0.8"/>
      </g>
     </g>
    </g>
    <g id="ytick_3">
     <g id="line2d_21">
      <g>
       <use xlink:href="#m1d73c432dc" x="7.2" y="89.460442" style="stroke: #000000; stroke-width: 0.8"/>
      </g>
     </g>
     <g id="line2d_22">
      <g>
       <use xlink:href="#me6eb6cc302" x="311.563636" y="89.460442" style="stroke: #000000; stroke-width: 0.8"/>
      </g>
     </g>
    </g>
    <g id="ytick_4">
     <g id="line2d_23">
      <g>
       <use xlink:href="#m1d73c432dc" x="7.2" y="68.895332" style="stroke: #000000; stroke-width: 0.8"/>
      </g>
     </g>
     <g id="line2d_24">
      <g>
       <use xlink:href="#me6eb6cc302" x="311.563636" y="68.895332" style="stroke: #000000; stroke-width: 0.8"/>
      </g>
     </g>
    </g>
    <g id="ytick_5">
     <g id="line2d_25">
      <g>
       <use xlink:href="#m1d73c432dc" x="7.2" y="48.330221" style="stroke: #000000; stroke-width: 0.8"/>
      </g>
     </g>
     <g id="line2d_26">
      <g>
       <use xlink:href="#me6eb6cc302" x="311.563636" y="48.330221" style="stroke: #000000; stroke-width: 0.8"/>
      </g>
     </g>
    </g>
    <g id="ytick_6">
     <g id="line2d_27">
      <g>
       <use xlink:href="#m1d73c432dc" x="7.2" y="27.765111" style="stroke: #000000; stroke-width: 0.8"/>
      </g>
     </g>
     <g id="line2d_28">
      <g>
       <use xlink:href="#me6eb6cc302" x="311.563636" y="27.765111" style="stroke: #000000; stroke-width: 0.8"/>
      </g>
     </g>
    </g>
    <g id="ytick_7">
     <g id="line2d_29">
      <g>
       <use xlink:href="#m1d73c432dc" x="7.2" y="7.2" style="stroke: #000000; stroke-width: 0.8"/>
      </g>
     </g>
     <g id="line2d_30">
      <g>
       <use xlink:href="#me6eb6cc302" x="311.563636" y="7.2" style="stroke: #000000; stroke-width: 0.8"/>
      </g>
     </g>
    </g>
   </g>
   <g id="line2d_31">
    <defs>
     <path id="mc42dcb56d4" d="M 0 -5 
L -1.12257 -1.545085 
L -4.755283 -1.545085 
L -1.816356 0.59017 
L -2.938926 4.045085 
L -0 1.90983 
L 2.938926 4.045085 
L 1.816356 0.59017 
L 4.755283 -1.545085 
L 1.12257 -1.545085 
z
" style="stroke: #000000; stroke-linejoin: bevel"/>
    </defs>
    <g clip-path="url(#pd9789c828e)">
     <use xlink:href="#mc42dcb56d4" x="97.686486" y="27.765111" style="stroke: #000000; stroke-linejoin: bevel"/>
     <use xlink:href="#mc42dcb56d4" x="138.816708" y="110.025553" style="stroke: #000000; stroke-linejoin: bevel"/>
     <use xlink:href="#mc42dcb56d4" x="171.720885" y="27.765111" style="stroke: #000000; stroke-linejoin: bevel"/>
     <use xlink:href="#mc42dcb56d4" x="179.946929" y="89.460442" style="stroke: #000000; stroke-linejoin: bevel"/>
     <use xlink:href="#mc42dcb56d4" x="225.190172" y="35.991155" style="stroke: #000000; stroke-linejoin: bevel"/>
    </g>
   </g>
   <g id="line2d_32">
    <path d="M 56.556265 68.895332 
L 97.686486 27.765111 
" clip-path="url(#pd9789c828e)" style="fill: none; stroke-dasharray: 5.55,2.4; stroke-dashoffset: 0; stroke: #000000; stroke-width: 1.5"/>
   </g>
   <g id="line2d_33">
    <path d="M 56.556265 68.895332 
L 138.816708 110.025553 
" clip-path="url(#pd9789c828e)" style="fill: none; stroke-dasharray: 5.55,2.4; stroke-dashoffset: 0; stroke: #000000; stroke-width: 1.5"/>
   </g>
   <g id="line2d_34">
    <path d="M 56.556265 68.895332 
L 171.720885 27.765111 
" clip-path="url(#pd9789c828e)" style="fill: none; stroke-dasharray: 5.55,2.4; stroke-dashoffset: 0; stroke: #000000; stroke-width: 1.5"/>
   </g>
   <g id="line2d_35">
    <path d="M 56.556265 68.895332 
L 179.946929 89.460442 
" clip-path="url(#pd9789c828e)" style="fill: none; stroke-dasharray: 5.55,2.4; stroke-dashoffset: 0; stroke: #000000; stroke-width: 1.5"/>
   </g>
   <g id="line2d_36">
    <path d="M 15.426044 68.895332 
L 56.556265 68.895332 
" clip-path="url(#pd9789c828e)" style="fill: none; stroke: #0000ff; stroke-width: 1.5; stroke-linecap: square"/>
   </g>
   <g id="line2d_37">
    <path d="M 15.426044 68.895332 
L 55.59737 68.895332 
" clip-path="url(#pd9789c828e)" style="fill: none; stroke: #000000; stroke-width: 1.5; stroke-linecap: square"/>
   </g>
   <g id="line2d_38">
    <path d="M 55.59737 68.895332 
L 55.59737 68.895332 
" clip-path="url(#pd9789c828e)" style="fill: none; stroke: #ff0000; stroke-width: 1.5; stroke-linecap: square"/>
    <defs>
     <path id="m751e2a3ed0" d="M 0 2 
C 0.530406 2 1.03916 1.789267 1.414214 1.414214 
C 1.789267 1.03916 2 0.530406 2 0 
C 2 -0.530406 1.789267 -1.03916 1.414214 -1.414214 
C 1.03916 -1.789267 0.530406 -2 0 -2 
C -0.530406 -2 -1.03916 -1.789267 -1.414214 -1.414214 
C -1.789267 -1.03916 -2 -0.530406 -2 0 
C -2 0.530406 -1.789267 1.03916 -1.414214 1.414214 
C -1.03916 1.789267 -0.530406 2 0 2 
z
" style="stroke: #ff0000"/>
    </defs>
    <g clip-path="url(#pd9789c828e)">
     <use xlink:href="#m751e2a3ed0" x="55.59737" y="68.895332" style="fill: #ff0000; stroke: #ff0000"/>
     <use xlink:href="#m751e2a3ed0" x="55.59737" y="68.895332" style="fill: #ff0000; stroke: #ff0000"/>
    </g>
   </g>
   <g id="line2d_39">
    <path d="M 14.465092 68.895332 
L 96.729647 68.895332 
" clip-path="url(#pd9789c828e)" style="fill: none; stroke: #0000ff; stroke-linecap: square"/>
   </g>
   <g id="line2d_40">
    <path d="M 55.59737 110.027609 
L 55.59737 27.763054 
" clip-path="url(#pd9789c828e)" style="fill: none; stroke: #0000ff; stroke-linecap: square"/>
   </g>
   <g id="line2d_41">
    <path d="M 73.878218 66.953822 
L 37.316521 70.836842 
" clip-path="url(#pd9789c828e)" style="fill: none; stroke: #ff0000; stroke-linecap: square"/>
   </g>
   <g id="line2d_42">
    <path d="M 57.889625 90.478722 
L 53.305115 47.311941 
" clip-path="url(#pd9789c828e)" style="fill: none; stroke: #ff0000; stroke-linecap: square"/>
   </g>
   <g id="line2d_43">
    <path d="M 93.03671 11.306759 
L 100.402901 44.461998 
" clip-path="url(#pd9789c828e)" style="fill: none; stroke: #008000; stroke-linecap: square"/>
   </g>
   <g id="line2d_44">
    <path d="M 116.999324 23.378822 
L 76.440287 32.389935 
" clip-path="url(#pd9789c828e)" style="fill: none; stroke: #008000; stroke-linecap: square"/>
   </g>
   <g id="line2d_45">
    <path d="M 130.373513 94.336144 
L 144.99012 125.531665 
" clip-path="url(#pd9789c828e)" style="fill: none; stroke: #008000; stroke-linecap: square"/>
   </g>
   <g id="line2d_46">
    <path d="M 158.027207 100.401107 
L 117.336425 119.466702 
" clip-path="url(#pd9789c828e)" style="fill: none; stroke: #008000; stroke-linecap: square"/>
   </g>
   <g id="line2d_47">
    <path d="M 185.286425 17.25587 
L 156.184208 38.2621 
" clip-path="url(#pd9789c828e)" style="fill: none; stroke: #008000; stroke-linecap: square"/>
   </g>
   <g id="line2d_48">
    <path d="M 185.351581 48.008486 
L 156.119052 7.509483 
" clip-path="url(#pd9789c828e)" style="fill: none; stroke: #008000; stroke-linecap: square"/>
   </g>
   <g id="line2d_49">
    <path d="M 196.552038 96.594829 
L 162.935687 82.586339 
" clip-path="url(#pd9789c828e)" style="fill: none; stroke: #008000; stroke-linecap: square"/>
   </g>
   <g id="line2d_50">
    <path d="M 170.006639 112.957122 
L 189.481086 66.224046 
" clip-path="url(#pd9789c828e)" style="fill: none; stroke: #008000; stroke-linecap: square"/>
   </g>
   <g id="patch_9">
    <path d="M 7.2 130.590663 
L 7.2 7.2 
" style="fill: none; stroke: #000000; stroke-width: 0.8; stroke-linejoin: miter; stroke-linecap: square"/>
   </g>
   <g id="patch_10">
    <path d="M 311.563636 130.590663 
L 311.563636 7.2 
" style="fill: none; stroke: #000000; stroke-width: 0.8; stroke-linejoin: miter; stroke-linecap: square"/>
   </g>
   <g id="patch_11">
    <path d="M 7.2 130.590663 
L 311.563636 130.590663 
" style="fill: none; stroke: #000000; stroke-width: 0.8; stroke-linejoin: miter; stroke-linecap: square"/>
   </g>
   <g id="patch_12">
    <path d="M 7.2 7.2 
L 311.563636 7.2 
" style="fill: none; stroke: #000000; stroke-width: 0.8; stroke-linejoin: miter; stroke-linecap: square"/>
   </g>
  </g>
 </g>
 <defs>
  <clipPath id="pd9789c828e">
   <rect x="7.2" y="7.2" width="304.363636" height="123.390663"/>
  </clipPath>
 </defs>
</svg>
