<?xml version="1.0" encoding="utf-8" standalone="no"?>
<!DOCTYPE svg PUBLIC "-//W3C//DTD SVG 1.1//EN"
  "http://www.w3.org/Graphics/SVG/1.1/DTD/svg11.dtd">
<svg xmlns:xlink="http://www.w3.org/1999/xlink" width="318.763636pt" height="137.790663pt" viewBox="0 0 318.763636 137.790663" xmlns="http://www.w3.org/2000/svg" version="1.1">
 <metadata>
  <rdf:RDF xmlns:dc="http://purl.org/dc/elements/1.1/" xmlns:cc="http://creativecommons.org/ns#" xmlns:rdf="http://www.w3.org/1999/02/22-rdf-syntax-ns#">
   <cc:Work>
    <dc:type rdf:resource="http://purl.org/dc/dcmitype/StillImage"/>
    <dc:date>2025-01-09T10:49:05.617471</dc:date>
    <dc:format>image/svg+xml</dc:format>
    <dc:creator>
     <cc:Agent>
      <dc:title>Matplotlib v3.8.2, https://matplotlib.org/</dc:title>
     </cc:Agent>
    </dc:creator>
   </cc:Work>
  </rdf:RDF>
 </metadata>
 <defs>
  <style type="text/css">*{stroke-linejoin: round; stroke-linecap: butt}</style>
 </defs>
 <g id="figure_1">
  <g id="patch_1">
   <path d="M 0 137.790663 
L 318.763636 137.790663 
L 318.763636 0 
L 0 0 
z
" style="fill: #ffffff"/>
  </g>
  <g id="axes_1">
   <g id="patch_2">
    <path d="M 7.2 130.590663 
L 311.563636 130.590663 
L 311.563636 7.2 
L 7.2 7.2 
z
" style="fill: #ffffff"/>
   </g>
   <g id="patch_3">
    <path d="M 121.993018 72.131638 
C 121.99282 72.365822 123.525657 72.591741 126.253939 72.759639 
C 128.982222 72.927538 132.683198 73.023708 136.54177 73.026969 
C 140.400342 73.03023 144.101475 72.940315 146.830037 72.777028 
C 149.5586 72.613742 151.091816 72.390414 151.092014 72.15623 
C 151.092212 71.922047 149.559375 71.696128 146.831093 71.528229 
C 144.10281 71.36033 140.401834 71.264161 136.543262 71.2609 
C 132.68469 71.257639 128.983557 71.347553 126.254995 71.51084 
C 123.526432 71.674127 121.993216 71.897455 121.993018 72.131638 
L 121.993018 72.131638 
z
" clip-path="url(#p5fadef6994)" style="fill: none; stroke: #0000ff; stroke-linejoin: miter"/>
   </g>
   <g id="patch_4">
    <path d="M 125.60168 71.786336 
C 125.59605 71.940766 126.733743 72.130562 128.764194 72.313925 
C 130.794646 72.497287 133.552078 72.659244 136.4292 72.764127 
C 139.306321 72.869009 142.068228 72.908255 144.106641 72.87322 
C 146.145053 72.838185 147.293546 72.731729 147.299175 72.577299 
C 147.304805 72.422869 146.167112 72.233072 144.136661 72.04971 
C 142.106209 71.866348 139.348777 71.704391 136.471655 71.599508 
C 133.594533 71.494625 130.832627 71.45538 128.794214 71.490415 
C 126.755801 71.52545 125.607309 71.631906 125.60168 71.786336 
L 125.60168 71.786336 
z
" clip-path="url(#p5fadef6994)" style="fill: none; stroke: #ff0000; stroke-linejoin: miter"/>
   </g>
   <g id="patch_5">
    <path d="M 86.70941 29.061384 
C 86.705364 29.198915 87.854722 29.364754 89.904349 29.522376 
C 91.953977 29.679999 94.736531 29.816536 97.639188 29.901917 
C 100.541844 29.987298 103.327613 30.014552 105.382962 29.977677 
C 107.43831 29.940801 108.595428 29.842807 108.599473 29.705276 
C 108.603519 29.567746 107.454162 29.401907 105.404534 29.244284 
C 103.354907 29.086662 100.572352 28.950125 97.669696 28.864744 
C 94.767039 28.779362 91.98127 28.752108 89.925922 28.788984 
C 87.870573 28.825859 86.713455 28.923853 86.70941 29.061384 
L 86.70941 29.061384 
z
" clip-path="url(#p5fadef6994)" style="fill: none; stroke: #008000; stroke-linejoin: miter"/>
   </g>
   <g id="patch_6">
    <path d="M 125.402305 113.260898 
C 125.397159 113.592338 126.54277 113.92811 128.586831 114.194266 
C 130.630891 114.460422 133.406513 114.63523 136.302397 114.680191 
C 139.198281 114.725153 141.977991 114.636596 144.029329 114.434025 
C 146.080667 114.231455 147.23615 113.931409 147.241296 113.599969 
C 147.246441 113.268529 146.10083 112.932756 144.05677 112.666601 
C 142.012709 112.400445 139.237088 112.225637 136.341204 112.180675 
C 133.44532 112.135714 130.66561 112.224271 128.614272 112.426841 
C 126.562934 112.629412 125.407451 112.929458 125.402305 113.260898 
L 125.402305 113.260898 
z
" clip-path="url(#p5fadef6994)" style="fill: none; stroke: #008000; stroke-linejoin: miter"/>
   </g>
   <g id="patch_7">
    <path d="M 160.856139 32.417695 
C 160.843622 32.709201 161.981671 33.038188 164.019644 33.332201 
C 166.057617 33.626215 168.829123 33.861249 171.723769 33.985541 
C 174.618415 34.109832 177.399866 34.113234 179.45554 33.994995 
C 181.511215 33.876757 182.673276 33.646533 182.685793 33.355027 
C 182.698309 33.063521 181.56026 32.734533 179.522287 32.44052 
C 177.484314 32.146507 174.712809 31.911473 171.818163 31.787181 
C 168.923517 31.662889 166.142066 31.659488 164.086391 31.777726 
C 162.030717 31.895965 160.868656 32.126189 160.856139 32.417695 
L 160.856139 32.417695 
z
" clip-path="url(#p5fadef6994)" style="fill: none; stroke: #008000; stroke-linejoin: miter"/>
   </g>
   <g id="patch_8">
    <path d="M 167.049623 93.925225 
C 167.042278 94.412602 168.183567 94.897389 170.222133 95.272818 
C 172.2607 95.648247 175.030105 95.883666 177.920418 95.927225 
C 180.810732 95.970785 183.585973 95.818929 185.634928 95.505103 
C 187.683882 95.191276 188.839261 94.741102 188.846606 94.253724 
C 188.853951 93.766347 187.712663 93.28156 185.674096 92.906131 
C 183.63553 92.530702 180.866125 92.295283 177.975811 92.251724 
C 175.085498 92.208164 172.310256 92.36002 170.261302 92.673846 
C 168.212348 92.987673 167.056969 93.437847 167.049623 93.925225 
L 167.049623 93.925225 
z
" clip-path="url(#p5fadef6994)" style="fill: none; stroke: #008000; stroke-linejoin: miter"/>
   </g>
   <g id="patch_9">
    <path d="M 123.375619 113.03793 
C 123.369058 113.224869 124.502495 113.444177 126.526303 113.647555 
C 128.550111 113.850933 131.299056 114.021776 134.167714 114.122458 
C 137.036372 114.223139 139.790529 114.245439 141.823616 114.184446 
C 143.856703 114.123453 145.002726 113.984147 145.009287 113.797209 
C 145.015848 113.61027 143.882411 113.390962 141.858603 113.187584 
C 139.834795 112.984206 137.085851 112.813363 134.217193 112.712681 
C 131.348535 112.612 128.594377 112.5897 126.56129 112.650693 
C 124.528203 112.711686 123.38218 112.850992 123.375619 113.03793 
L 123.375619 113.03793 
z
" clip-path="url(#p5fadef6994)" style="fill: none; stroke: #008000; stroke-linejoin: miter"/>
   </g>
   <g id="patch_10">
    <path d="M 165.784115 94.77493 
C 165.771901 95.095682 166.901729 95.446809 168.924766 95.750979 
C 170.947803 96.055149 173.698878 96.287529 176.572098 96.396938 
C 179.445319 96.506348 182.206099 96.483855 184.24641 96.334414 
C 186.28672 96.184973 187.439978 95.920784 187.452192 95.600032 
C 187.464406 95.27928 186.334578 94.928153 184.311541 94.623983 
C 182.288504 94.319812 179.537429 94.087433 176.664209 93.978023 
C 173.790988 93.868613 171.030208 93.891106 168.989898 94.040547 
C 166.949587 94.189989 165.796329 94.454178 165.784115 94.77493 
L 165.784115 94.77493 
z
" clip-path="url(#p5fadef6994)" style="fill: none; stroke: #008000; stroke-linejoin: miter"/>
   </g>
   <g id="patch_11">
    <path d="M 213.698307 43.801557 
C 213.670661 44.306168 214.79227 44.853083 216.816114 45.321851 
C 218.839958 45.790618 221.600798 46.142965 224.490592 46.301292 
C 227.380386 46.459619 230.163195 46.410998 232.226137 46.166138 
C 234.289079 45.921279 235.463724 45.500171 235.491371 44.995561 
C 235.519018 44.49095 234.397409 43.944035 232.373565 43.475267 
C 230.349721 43.0065 227.588881 42.654152 224.699087 42.495826 
C 221.809293 42.337499 219.026484 42.38612 216.963542 42.63098 
C 214.9006 42.875839 213.725954 43.296947 213.698307 43.801557 
L 213.698307 43.801557 
z
" clip-path="url(#p5fadef6994)" style="fill: none; stroke: #008000; stroke-linejoin: miter"/>
   </g>
   <g id="matplotlib.axis_1">
    <g id="xtick_1">
     <g id="line2d_1">
      <defs>
       <path id="m728b97d534" d="M 0 0 
L 0 -3 
" style="stroke: #000000; stroke-width: 0.8"/>
      </defs>
      <g>
       <use xlink:href="#m728b97d534" x="15.426044" y="130.590663" style="stroke: #000000; stroke-width: 0.8"/>
      </g>
     </g>
     <g id="line2d_2">
      <defs>
       <path id="ma4cebffd96" d="M 0 0 
L 0 3 
" style="stroke: #000000; stroke-width: 0.8"/>
      </defs>
      <g>
       <use xlink:href="#ma4cebffd96" x="15.426044" y="7.2" style="stroke: #000000; stroke-width: 0.8"/>
      </g>
     </g>
    </g>
    <g id="xtick_2">
     <g id="line2d_3">
      <g>
       <use xlink:href="#m728b97d534" x="56.556265" y="130.590663" style="stroke: #000000; stroke-width: 0.8"/>
      </g>
     </g>
     <g id="line2d_4">
      <g>
       <use xlink:href="#ma4cebffd96" x="56.556265" y="7.2" style="stroke: #000000; stroke-width: 0.8"/>
      </g>
     </g>
    </g>
    <g id="xtick_3">
     <g id="line2d_5">
      <g>
       <use xlink:href="#m728b97d534" x="97.686486" y="130.590663" style="stroke: #000000; stroke-width: 0.8"/>
      </g>
     </g>
     <g id="line2d_6">
      <g>
       <use xlink:href="#ma4cebffd96" x="97.686486" y="7.2" style="stroke: #000000; stroke-width: 0.8"/>
      </g>
     </g>
    </g>
    <g id="xtick_4">
     <g id="line2d_7">
      <g>
       <use xlink:href="#m728b97d534" x="138.816708" y="130.590663" style="stroke: #000000; stroke-width: 0.8"/>
      </g>
     </g>
     <g id="line2d_8">
      <g>
       <use xlink:href="#ma4cebffd96" x="138.816708" y="7.2" style="stroke: #000000; stroke-width: 0.8"/>
      </g>
     </g>
    </g>
    <g id="xtick_5">
     <g id="line2d_9">
      <g>
       <use xlink:href="#m728b97d534" x="179.946929" y="130.590663" style="stroke: #000000; stroke-width: 0.8"/>
      </g>
     </g>
     <g id="line2d_10">
      <g>
       <use xlink:href="#ma4cebffd96" x="179.946929" y="7.2" style="stroke: #000000; stroke-width: 0.8"/>
      </g>
     </g>
    </g>
    <g id="xtick_6">
     <g id="line2d_11">
      <g>
       <use xlink:href="#m728b97d534" x="221.07715" y="130.590663" style="stroke: #000000; stroke-width: 0.8"/>
      </g>
     </g>
     <g id="line2d_12">
      <g>
       <use xlink:href="#ma4cebffd96" x="221.07715" y="7.2" style="stroke: #000000; stroke-width: 0.8"/>
      </g>
     </g>
    </g>
    <g id="xtick_7">
     <g id="line2d_13">
      <g>
       <use xlink:href="#m728b97d534" x="262.207371" y="130.590663" style="stroke: #000000; stroke-width: 0.8"/>
      </g>
     </g>
     <g id="line2d_14">
      <g>
       <use xlink:href="#ma4cebffd96" x="262.207371" y="7.2" style="stroke: #000000; stroke-width: 0.8"/>
      </g>
     </g>
    </g>
    <g id="xtick_8">
     <g id="line2d_15">
      <g>
       <use xlink:href="#m728b97d534" x="303.337592" y="130.590663" style="stroke: #000000; stroke-width: 0.8"/>
      </g>
     </g>
     <g id="line2d_16">
      <g>
       <use xlink:href="#ma4cebffd96" x="303.337592" y="7.2" style="stroke: #000000; stroke-width: 0.8"/>
      </g>
     </g>
    </g>
   </g>
   <g id="matplotlib.axis_2">
    <g id="ytick_1">
     <g id="line2d_17">
      <defs>
       <path id="m83b82d6a71" d="M 0 0 
L 3 0 
" style="stroke: #000000; stroke-width: 0.8"/>
      </defs>
      <g>
       <use xlink:href="#m83b82d6a71" x="7.2" y="130.590663" style="stroke: #000000; stroke-width: 0.8"/>
      </g>
     </g>
     <g id="line2d_18">
      <defs>
       <path id="mb8924c781f" d="M 0 0 
L -3 0 
" style="stroke: #000000; stroke-width: 0.8"/>
      </defs>
      <g>
       <use xlink:href="#mb8924c781f" x="311.563636" y="130.590663" style="stroke: #000000; stroke-width: 0.8"/>
      </g>
     </g>
    </g>
    <g id="ytick_2">
     <g id="line2d_19">
      <g>
       <use xlink:href="#m83b82d6a71" x="7.2" y="110.025553" style="stroke: #000000; stroke-width: 0.8"/>
      </g>
     </g>
     <g id="line2d_20">
      <g>
       <use xlink:href="#mb8924c781f" x="311.563636" y="110.025553" style="stroke: #000000; stroke-width: 0.8"/>
      </g>
     </g>
    </g>
    <g id="ytick_3">
     <g id="line2d_21">
      <g>
       <use xlink:href="#m83b82d6a71" x="7.2" y="89.460442" style="stroke: #000000; stroke-width: 0.8"/>
      </g>
     </g>
     <g id="line2d_22">
      <g>
       <use xlink:href="#mb8924c781f" x="311.563636" y="89.460442" style="stroke: #000000; stroke-width: 0.8"/>
      </g>
     </g>
    </g>
    <g id="ytick_4">
     <g id="line2d_23">
      <g>
       <use xlink:href="#m83b82d6a71" x="7.2" y="68.895332" style="stroke: #000000; stroke-width: 0.8"/>
      </g>
     </g>
     <g id="line2d_24">
      <g>
       <use xlink:href="#mb8924c781f" x="311.563636" y="68.895332" style="stroke: #000000; stroke-width: 0.8"/>
      </g>
     </g>
    </g>
    <g id="ytick_5">
     <g id="line2d_25">
      <g>
       <use xlink:href="#m83b82d6a71" x="7.2" y="48.330221" style="stroke: #000000; stroke-width: 0.8"/>
      </g>
     </g>
     <g id="line2d_26">
      <g>
       <use xlink:href="#mb8924c781f" x="311.563636" y="48.330221" style="stroke: #000000; stroke-width: 0.8"/>
      </g>
     </g>
    </g>
    <g id="ytick_6">
     <g id="line2d_27">
      <g>
       <use xlink:href="#m83b82d6a71" x="7.2" y="27.765111" style="stroke: #000000; stroke-width: 0.8"/>
      </g>
     </g>
     <g id="line2d_28">
      <g>
       <use xlink:href="#mb8924c781f" x="311.563636" y="27.765111" style="stroke: #000000; stroke-width: 0.8"/>
      </g>
     </g>
    </g>
    <g id="ytick_7">
     <g id="line2d_29">
      <g>
       <use xlink:href="#m83b82d6a71" x="7.2" y="7.2" style="stroke: #000000; stroke-width: 0.8"/>
      </g>
     </g>
     <g id="line2d_30">
      <g>
       <use xlink:href="#mb8924c781f" x="311.563636" y="7.2" style="stroke: #000000; stroke-width: 0.8"/>
      </g>
     </g>
    </g>
   </g>
   <g id="line2d_31">
    <defs>
     <path id="mcac614f066" d="M 0 -5 
L -1.12257 -1.545085 
L -4.755283 -1.545085 
L -1.816356 0.59017 
L -2.938926 4.045085 
L -0 1.90983 
L 2.938926 4.045085 
L 1.816356 0.59017 
L 4.755283 -1.545085 
L 1.12257 -1.545085 
z
" style="stroke: #000000; stroke-linejoin: bevel"/>
    </defs>
    <g clip-path="url(#p5fadef6994)">
     <use xlink:href="#mcac614f066" x="97.686486" y="27.765111" style="stroke: #000000; stroke-linejoin: bevel"/>
     <use xlink:href="#mcac614f066" x="138.816708" y="110.025553" style="stroke: #000000; stroke-linejoin: bevel"/>
     <use xlink:href="#mcac614f066" x="171.720885" y="27.765111" style="stroke: #000000; stroke-linejoin: bevel"/>
     <use xlink:href="#mcac614f066" x="179.946929" y="89.460442" style="stroke: #000000; stroke-linejoin: bevel"/>
     <use xlink:href="#mcac614f066" x="225.190172" y="35.991155" style="stroke: #000000; stroke-linejoin: bevel"/>
    </g>
   </g>
   <g id="line2d_32">
    <path d="M 138.816708 68.895332 
L 138.816708 110.025553 
" clip-path="url(#p5fadef6994)" style="fill: none; stroke-dasharray: 5.55,2.4; stroke-dashoffset: 0; stroke: #000000; stroke-width: 1.5"/>
   </g>
   <g id="line2d_33">
    <path d="M 138.816708 68.895332 
L 171.720885 27.765111 
" clip-path="url(#p5fadef6994)" style="fill: none; stroke-dasharray: 5.55,2.4; stroke-dashoffset: 0; stroke: #000000; stroke-width: 1.5"/>
   </g>
   <g id="line2d_34">
    <path d="M 138.816708 68.895332 
L 179.946929 89.460442 
" clip-path="url(#p5fadef6994)" style="fill: none; stroke-dasharray: 5.55,2.4; stroke-dashoffset: 0; stroke: #000000; stroke-width: 1.5"/>
   </g>
   <g id="line2d_35">
    <path d="M 138.816708 68.895332 
L 225.190172 35.991155 
" clip-path="url(#p5fadef6994)" style="fill: none; stroke-dasharray: 5.55,2.4; stroke-dashoffset: 0; stroke: #000000; stroke-width: 1.5"/>
   </g>
   <g id="line2d_36">
    <path d="M 15.426044 68.895332 
L 56.556265 68.895332 
L 97.686486 68.895332 
L 138.816708 68.895332 
" clip-path="url(#p5fadef6994)" style="fill: none; stroke: #0000ff; stroke-width: 1.5; stroke-linecap: square"/>
   </g>
   <g id="line2d_37">
    <path d="M 15.426044 68.895332 
L 55.56276 68.895332 
L 95.626268 68.936148 
L 136.608076 68.977211 
" clip-path="url(#p5fadef6994)" style="fill: none; stroke: #000000; stroke-width: 1.5; stroke-linecap: square"/>
   </g>
   <g id="line2d_38">
    <path d="M 55.56276 68.895332 
L 55.56276 68.895332 
L 95.61243 70.085212 
L 136.450427 72.181817 
" clip-path="url(#p5fadef6994)" style="fill: none; stroke: #ff0000; stroke-width: 1.5; stroke-linecap: square"/>
    <defs>
     <path id="m043177b2a6" d="M 0 2 
C 0.530406 2 1.03916 1.789267 1.414214 1.414214 
C 1.789267 1.03916 2 0.530406 2 0 
C 2 -0.530406 1.789267 -1.03916 1.414214 -1.414214 
C 1.03916 -1.789267 0.530406 -2 0 -2 
C -0.530406 -2 -1.03916 -1.789267 -1.414214 -1.414214 
C -1.789267 -1.03916 -2 -0.530406 -2 0 
C -2 0.530406 -1.789267 1.03916 -1.414214 1.414214 
C -1.03916 1.789267 -0.530406 2 0 2 
z
" style="stroke: #ff0000"/>
    </defs>
    <g clip-path="url(#p5fadef6994)">
     <use xlink:href="#m043177b2a6" x="55.56276" y="68.895332" style="fill: #ff0000; stroke: #ff0000"/>
     <use xlink:href="#m043177b2a6" x="55.56276" y="68.895332" style="fill: #ff0000; stroke: #ff0000"/>
     <use xlink:href="#m043177b2a6" x="95.61243" y="70.085212" style="fill: #ff0000; stroke: #ff0000"/>
     <use xlink:href="#m043177b2a6" x="136.450427" y="72.181817" style="fill: #ff0000; stroke: #ff0000"/>
    </g>
   </g>
   <g id="line2d_39">
    <path d="M 136.543262 71.2609 
L 136.54177 73.026969 
" clip-path="url(#p5fadef6994)" style="fill: none; stroke: #0000ff; stroke-linecap: square"/>
   </g>
   <g id="line2d_40">
    <path d="M 151.092014 72.15623 
L 121.993018 72.131638 
" clip-path="url(#p5fadef6994)" style="fill: none; stroke: #0000ff; stroke-linecap: square"/>
   </g>
   <g id="line2d_41">
    <path d="M 136.471655 71.599508 
L 136.4292 72.764127 
" clip-path="url(#p5fadef6994)" style="fill: none; stroke: #ff0000; stroke-linecap: square"/>
   </g>
   <g id="line2d_42">
    <path d="M 147.299175 72.577299 
L 125.60168 71.786336 
" clip-path="url(#p5fadef6994)" style="fill: none; stroke: #ff0000; stroke-linecap: square"/>
   </g>
   <g id="line2d_43">
    <path d="M 97.669696 28.864744 
L 97.639188 29.901917 
" clip-path="url(#p5fadef6994)" style="fill: none; stroke: #008000; stroke-linecap: square"/>
   </g>
   <g id="line2d_44">
    <path d="M 108.599473 29.705276 
L 86.70941 29.061384 
" clip-path="url(#p5fadef6994)" style="fill: none; stroke: #008000; stroke-linecap: square"/>
   </g>
   <g id="line2d_45">
    <path d="M 136.341204 112.180675 
L 136.302397 114.680191 
" clip-path="url(#p5fadef6994)" style="fill: none; stroke: #008000; stroke-linecap: square"/>
   </g>
   <g id="line2d_46">
    <path d="M 147.241296 113.599969 
L 125.402305 113.260898 
" clip-path="url(#p5fadef6994)" style="fill: none; stroke: #008000; stroke-linecap: square"/>
   </g>
   <g id="line2d_47">
    <path d="M 171.818163 31.787181 
L 171.723769 33.985541 
" clip-path="url(#p5fadef6994)" style="fill: none; stroke: #008000; stroke-linecap: square"/>
   </g>
   <g id="line2d_48">
    <path d="M 182.685793 33.355027 
L 160.856139 32.417695 
" clip-path="url(#p5fadef6994)" style="fill: none; stroke: #008000; stroke-linecap: square"/>
   </g>
   <g id="line2d_49">
    <path d="M 177.975811 92.251724 
L 177.920418 95.927225 
" clip-path="url(#p5fadef6994)" style="fill: none; stroke: #008000; stroke-linecap: square"/>
   </g>
   <g id="line2d_50">
    <path d="M 188.846606 94.253724 
L 167.049623 93.925225 
" clip-path="url(#p5fadef6994)" style="fill: none; stroke: #008000; stroke-linecap: square"/>
   </g>
   <g id="line2d_51">
    <path d="M 134.217193 112.712681 
L 134.167714 114.122458 
" clip-path="url(#p5fadef6994)" style="fill: none; stroke: #008000; stroke-linecap: square"/>
   </g>
   <g id="line2d_52">
    <path d="M 145.009287 113.797209 
L 123.375619 113.03793 
" clip-path="url(#p5fadef6994)" style="fill: none; stroke: #008000; stroke-linecap: square"/>
   </g>
   <g id="line2d_53">
    <path d="M 176.664209 93.978023 
L 176.572098 96.396938 
" clip-path="url(#p5fadef6994)" style="fill: none; stroke: #008000; stroke-linecap: square"/>
   </g>
   <g id="line2d_54">
    <path d="M 187.452192 95.600032 
L 165.784115 94.77493 
" clip-path="url(#p5fadef6994)" style="fill: none; stroke: #008000; stroke-linecap: square"/>
   </g>
   <g id="line2d_55">
    <path d="M 224.699087 42.495826 
L 224.490592 46.301292 
" clip-path="url(#p5fadef6994)" style="fill: none; stroke: #008000; stroke-linecap: square"/>
   </g>
   <g id="line2d_56">
    <path d="M 235.491371 44.995561 
L 213.698307 43.801557 
" clip-path="url(#p5fadef6994)" style="fill: none; stroke: #008000; stroke-linecap: square"/>
   </g>
   <g id="patch_12">
    <path d="M 7.2 130.590663 
L 7.2 7.2 
" style="fill: none; stroke: #000000; stroke-width: 0.8; stroke-linejoin: miter; stroke-linecap: square"/>
   </g>
   <g id="patch_13">
    <path d="M 311.563636 130.590663 
L 311.563636 7.2 
" style="fill: none; stroke: #000000; stroke-width: 0.8; stroke-linejoin: miter; stroke-linecap: square"/>
   </g>
   <g id="patch_14">
    <path d="M 7.2 130.590663 
L 311.563636 130.590663 
" style="fill: none; stroke: #000000; stroke-width: 0.8; stroke-linejoin: miter; stroke-linecap: square"/>
   </g>
   <g id="patch_15">
    <path d="M 7.2 7.2 
L 311.563636 7.2 
" style="fill: none; stroke: #000000; stroke-width: 0.8; stroke-linejoin: miter; stroke-linecap: square"/>
   </g>
  </g>
 </g>
 <defs>
  <clipPath id="p5fadef6994">
   <rect x="7.2" y="7.2" width="304.363636" height="123.390663"/>
  </clipPath>
 </defs>
</svg>
